M48
METRIC,LZ,000.000
;FILE_FORMAT=3:3
;TYPE=PLATED
;Layer: PTH_Through
;EasyEDA v6.5.54, 2026-02-03 19:04:38
;9173210c2a1045c2b90a711feb310df5,b3696df828ae431383eed25e92d68677,10
;Gerber Generator version 0.2
;Holesize 1 = 0.306 mm
T01C0.306
;Holesize 2 = 0.889 mm
T02C0.889
;Holesize 3 = 0.914 mm
T03C0.914
;Holesize 4 = 0.915 mm
T04C0.915
;Holesize 5 = 0.966 mm
T05C0.966
;Holesize 6 = 1.000 mm
T06C1.000
;Holesize 7 = 1.101 mm
T07C1.101
;Holesize 8 = 1.800 mm
T08C1.800
%
G05
G90
T01
X116384Y038659
X088189Y026901
X107959Y016617
X120040Y018982
X103503Y050666
X098359Y030740
X092365Y030740
X080270Y052312
X107055Y056386
X080428Y017362
X111852Y037805
X094590Y037805
X119134Y047511
X103367Y065494
X082005Y054157
X074228Y012384
X070941Y059317
X125121Y039170
X093816Y-007828
X058394Y024254
X069460Y007196
X066231Y017596
X060112Y-007868
X053674Y005111
X071694Y-014080
X043453Y002875
X044720Y026296
X096503Y007878
X104950Y020160
X097765Y013424
X092491Y012824
X077961Y063937
X105038Y006559
X096166Y012783
X096166Y053031
X073588Y029271
X078560Y020320
X078787Y-002242
X082169Y-011966
X104405Y009568
T02
X046482Y058293
X046482Y055753
X046482Y053213
X046482Y050673
X046482Y048133
X046482Y045593
X046482Y043053
X046482Y040513
X046482Y037973
X046482Y035433
X046482Y032893
X046482Y030353
X046482Y027813
X046482Y025273
X046482Y022733
X046482Y020193
X046482Y017653
X046482Y015113
X046482Y012573
X046482Y010033
X089916Y001651
X087376Y001651
X084836Y001651
X082296Y001651
X079756Y001651
X094996Y001651
X097536Y001651
X100076Y001651
X102616Y001651
X099822Y-005969
X097282Y-005969
X094742Y-005969
X087249Y-005969
X084709Y-005969
X082169Y-005969
X068072Y-003302
X070612Y-003302
X073152Y-003302
X068072Y000508
X070612Y000508
X073152Y000508
X073152Y-007112
X070612Y-007112
X068072Y-007112
X065532Y-007112
X128270Y006350
X128270Y003810
X128270Y001270
X128270Y-001270
X128397Y030226
X128397Y027686
X128397Y025146
X128397Y022606
X128270Y055499
X128270Y052959
X128270Y050419
X128270Y047879
T03
X122385Y-007907
X122385Y-005367
X122385Y-002827
X122385Y-000287
X122385Y002253
X122385Y004793
X122385Y007333
X122385Y009873
X109687Y009871
X109687Y007331
X109687Y004791
X109687Y002251
X109687Y-000289
X109687Y-002829
X109687Y-005369
X109687Y-007909
X122385Y042893
X122385Y045433
X122385Y047973
X122385Y050513
X122385Y053053
X122385Y055593
X122385Y058133
X122385Y060673
X109687Y060671
X109687Y058131
X109687Y055591
X109687Y053051
X109687Y050511
X109687Y047971
X109687Y045431
X109687Y042891
X122385Y017493
X122385Y020033
X122385Y022573
X122385Y025113
X122385Y027653
X122385Y030193
X122385Y032733
X122385Y035273
X109687Y035271
X109687Y032731
X109687Y030191
X109687Y027651
X109687Y025111
X109687Y022571
X109687Y020031
X109687Y017491
T04
X113538Y051689
X118618Y051689
X118491Y026289
X113411Y026289
X118618Y000889
X113538Y000889
T05
X097028Y061976
X094488Y061976
X104648Y061976
X102108Y061976
T06
X050800Y060960
X050800Y058420
X050800Y055880
X050800Y053340
X050800Y050800
X050800Y048260
X050800Y045720
X050800Y043180
X050800Y040640
X050800Y038100
X050800Y035560
X050800Y033020
X050800Y030480
X050800Y027940
X050800Y025400
X050800Y022860
X050800Y020320
X050800Y017780
X050800Y015240
X050800Y012700
X050800Y010160
X053340Y010160
X053340Y012700
X053340Y015240
X053340Y017780
X053340Y020320
X053340Y022860
X053340Y025400
X053340Y027940
X053340Y030480
X053340Y033020
X053340Y035560
X053340Y038100
X053340Y040640
X053340Y043180
X053340Y045720
X053340Y048260
X053340Y050800
X053340Y053340
X053340Y055880
X053340Y058420
X053340Y060960
X063500Y010160
X066040Y010160
X068580Y010160
X068580Y012700
X066040Y012700
X063500Y012700
X083820Y048260
X083820Y045720
X083820Y043180
X083820Y040640
X083820Y038100
X083820Y035560
X083820Y033020
X083820Y030480
X083820Y027940
X083820Y025400
X083820Y022860
X083820Y020320
X083820Y017780
X083820Y015240
X083820Y012700
X083820Y010160
X086360Y010160
X086360Y012700
X086360Y015240
X086360Y017780
X086360Y020320
X086360Y022860
X086360Y025400
X086360Y027940
X086360Y030480
X086360Y033020
X086360Y035560
X086360Y038100
X086360Y040640
X086360Y043180
X086360Y045720
X086360Y048260
X081280Y010160
X078740Y010160
X076200Y010160
X076200Y012700
X078740Y012700
X081280Y012700
T07
X061380Y-010080
X050380Y-010080
X058420Y003810
X058420Y006350
T08
X053380Y-000080
X058380Y-000080
M30
