M48
METRIC,LZ,000.000
;FILE_FORMAT=3:3
;TYPE=PLATED
;Layer: PTH_Through_Via
;EasyEDA v6.5.54, 2026-02-03 19:04:38
;9173210c2a1045c2b90a711feb310df5,b3696df828ae431383eed25e92d68677,10
;Gerber Generator version 0.2
;Holesize 1 = 0.306 mm
T01C0.306
%
G05
G90
T01
X116384Y038659
X088189Y026901
X107959Y016617
X120040Y018982
X103503Y050666
X098359Y030740
X092365Y030740
X080270Y052312
X107055Y056386
X080428Y017362
X111852Y037805
X094590Y037805
X119134Y047511
X103367Y065494
X082005Y054157
X074228Y012384
X070941Y059317
X125121Y039170
X093816Y-007828
X058394Y024254
X069460Y007196
X066231Y017596
X060112Y-007868
X053674Y005111
X071694Y-014080
X043453Y002875
X044720Y026296
X096503Y007878
X104950Y020160
X097765Y013424
X092491Y012824
X077961Y063937
X105038Y006559
X096166Y012783
X096166Y053031
X073588Y029271
X078560Y020320
X078787Y-002242
X082169Y-011966
X104405Y009568
M30
