G04 Layer: TopSolderMaskLayer*
G04 EasyEDA v6.5.54, 2026-02-03 19:04:38*
G04 9173210c2a1045c2b90a711feb310df5,b3696df828ae431383eed25e92d68677,10*
G04 Gerber Generator version 0.2*
G04 Scale: 100 percent, Rotated: No, Reflected: No *
G04 Dimensions in millimeters *
G04 leading zeros omitted , absolute positions ,4 integer and 5 decimal *
%FSLAX45Y45*%
%MOMM*%

%AMMACRO1*4,1,8,-0.8085,-0.8382,-0.8382,-0.8082,-0.8382,0.8085,-0.8085,0.8382,0.8082,0.8382,0.8382,0.8085,0.8382,-0.8082,0.8082,-0.8382,-0.8085,-0.8382,0*%
%AMMACRO2*4,1,8,-0.8042,-0.8636,-0.8636,-0.8039,-0.8636,0.8042,-0.8042,0.8636,0.8039,0.8636,0.8636,0.8042,0.8636,-0.8039,0.8039,-0.8636,-0.8042,-0.8636,0*%
%AMMACRO3*4,1,8,-0.8085,-0.9007,-0.8382,-0.8707,-0.8382,0.871,-0.8085,0.9007,0.8082,0.9007,0.8382,0.871,0.8382,-0.8707,0.8082,-0.9007,-0.8085,-0.9007,0*%
%ADD10C,1.6256*%
%ADD11C,1.6764*%
%ADD12MACRO1*%
%ADD13MACRO2*%
%ADD14C,1.7272*%
%ADD15C,0.0140*%
%ADD16C,2.6016*%
%ADD17C,1.9016*%
%ADD18MACRO3*%
%ADD19C,1.8016*%
%ADD20C,1.7526*%
%ADD21C,1.7016*%

%LPD*%
D10*
G01*
X11353800Y5168900D03*
G01*
X11861800Y5168900D03*
G01*
X11849100Y2628900D03*
G01*
X11341100Y2628900D03*
G01*
X11861800Y88900D03*
G01*
X11353800Y88900D03*
D11*
G01*
X4648200Y5829300D03*
G01*
X4648200Y5575300D03*
G01*
X4648200Y5321300D03*
G01*
X4648200Y5067300D03*
G01*
X4648200Y4813300D03*
G01*
X4648200Y4559300D03*
G01*
X4648200Y4305300D03*
G01*
X4648200Y4051300D03*
G01*
X4648200Y3797300D03*
G01*
X4648200Y3543300D03*
G01*
X4648200Y3289300D03*
G01*
X4648200Y3035300D03*
G01*
X4648200Y2781300D03*
G01*
X4648200Y2527300D03*
G01*
X4648200Y2273300D03*
G01*
X4648200Y2019300D03*
G01*
X4648200Y1765300D03*
G01*
X4648200Y1511300D03*
G01*
X4648200Y1257300D03*
D12*
G01*
X4648200Y1003300D03*
D11*
G01*
X8991600Y165100D03*
G01*
X8737600Y165100D03*
G01*
X8483600Y165100D03*
G01*
X8229600Y165100D03*
D12*
G01*
X7975600Y165100D03*
G01*
X9499600Y165100D03*
D11*
G01*
X9753600Y165100D03*
G01*
X10007600Y165100D03*
G01*
X10261600Y165100D03*
G01*
X9982200Y-596900D03*
G01*
X9728200Y-596900D03*
D12*
G01*
X9474200Y-596900D03*
D11*
G01*
X8724900Y-596900D03*
G01*
X8470900Y-596900D03*
D12*
G01*
X8216900Y-596900D03*
D11*
G01*
X6807200Y-330200D03*
G01*
X7061200Y-330200D03*
D12*
G01*
X7315200Y-330200D03*
D11*
G01*
X6807200Y50800D03*
G01*
X7061200Y50800D03*
D12*
G01*
X7315200Y50800D03*
G01*
X7315200Y-711200D03*
D11*
G01*
X7061200Y-711200D03*
G01*
X6807200Y-711200D03*
G01*
X6553200Y-711200D03*
D13*
G01*
X12238481Y-790702D03*
D14*
G01*
X12238481Y-536702D03*
G01*
X12238481Y-282702D03*
G01*
X12238481Y-28702D03*
G01*
X12238481Y225297D03*
G01*
X12238481Y479297D03*
G01*
X12238481Y733297D03*
G01*
X12238481Y987297D03*
G01*
X10968685Y987145D03*
G01*
X10968685Y733145D03*
G01*
X10968685Y479145D03*
G01*
X10968685Y225145D03*
G01*
X10968685Y-28854D03*
G01*
X10968685Y-282854D03*
G01*
X10968685Y-536854D03*
G01*
X10968685Y-790854D03*
D13*
G01*
X12238481Y4289297D03*
D14*
G01*
X12238481Y4543297D03*
G01*
X12238481Y4797297D03*
G01*
X12238481Y5051297D03*
G01*
X12238481Y5305297D03*
G01*
X12238481Y5559297D03*
G01*
X12238481Y5813297D03*
G01*
X12238481Y6067297D03*
G01*
X10968685Y6067145D03*
G01*
X10968685Y5813145D03*
G01*
X10968685Y5559145D03*
G01*
X10968685Y5305145D03*
G01*
X10968685Y5051145D03*
G01*
X10968685Y4797145D03*
G01*
X10968685Y4543145D03*
G01*
X10968685Y4289145D03*
D13*
G01*
X12238481Y1749297D03*
D14*
G01*
X12238481Y2003297D03*
G01*
X12238481Y2257297D03*
G01*
X12238481Y2511297D03*
G01*
X12238481Y2765297D03*
G01*
X12238481Y3019297D03*
G01*
X12238481Y3273297D03*
G01*
X12238481Y3527297D03*
G01*
X10968685Y3527145D03*
G01*
X10968685Y3273145D03*
G01*
X10968685Y3019145D03*
G01*
X10968685Y2765145D03*
G01*
X10968685Y2511145D03*
G01*
X10968685Y2257145D03*
G01*
X10968685Y2003145D03*
G01*
X10968685Y1749145D03*
D12*
G01*
X12827000Y635000D03*
D11*
G01*
X12827000Y381000D03*
G01*
X12827000Y127000D03*
G01*
X12827000Y-127000D03*
D16*
G01*
X5338013Y-8001D03*
G01*
X5837986Y-8001D03*
D17*
G01*
X6138011Y-1007998D03*
G01*
X5037988Y-1007998D03*
D12*
G01*
X12839700Y3022600D03*
D11*
G01*
X12839700Y2768600D03*
G01*
X12839700Y2514600D03*
G01*
X12839700Y2260600D03*
D12*
G01*
X12827000Y5549900D03*
D11*
G01*
X12827000Y5295900D03*
G01*
X12827000Y5041900D03*
G01*
X12827000Y4787900D03*
D18*
G01*
X5842000Y381000D03*
D19*
G01*
X5842000Y635000D03*
D20*
G01*
X9702800Y6197600D03*
G01*
X9448800Y6197600D03*
D21*
G01*
X5080000Y6096000D03*
G01*
X5080000Y5842000D03*
G01*
X5080000Y5588000D03*
G01*
X5080000Y5334000D03*
G01*
X5080000Y5080000D03*
G01*
X5080000Y4826000D03*
G01*
X5080000Y4572000D03*
G01*
X5080000Y4318000D03*
G01*
X5080000Y4064000D03*
G01*
X5080000Y3810000D03*
G01*
X5080000Y3556000D03*
G01*
X5080000Y3302000D03*
G01*
X5080000Y3048000D03*
G01*
X5080000Y2794000D03*
G01*
X5080000Y2540000D03*
G01*
X5080000Y2286000D03*
G01*
X5080000Y2032000D03*
G01*
X5080000Y1778000D03*
G01*
X5080000Y1524000D03*
G01*
X5080000Y1270000D03*
G01*
X5080000Y1016000D03*
G01*
X5334000Y1016000D03*
G01*
X5334000Y1270000D03*
G01*
X5334000Y1524000D03*
G01*
X5334000Y1778000D03*
G01*
X5334000Y2032000D03*
G01*
X5334000Y2286000D03*
G01*
X5334000Y2540000D03*
G01*
X5334000Y2794000D03*
G01*
X5334000Y3048000D03*
G01*
X5334000Y3302000D03*
G01*
X5334000Y3556000D03*
G01*
X5334000Y3810000D03*
G01*
X5334000Y4064000D03*
G01*
X5334000Y4318000D03*
G01*
X5334000Y4572000D03*
G01*
X5334000Y4826000D03*
G01*
X5334000Y5080000D03*
G01*
X5334000Y5334000D03*
G01*
X5334000Y5588000D03*
G01*
X5334000Y5842000D03*
G01*
X5334000Y6096000D03*
G01*
X6350000Y1016000D03*
G01*
X6604000Y1016000D03*
G01*
X6858000Y1016000D03*
G01*
X6858000Y1270000D03*
G01*
X6604000Y1270000D03*
G01*
X6350000Y1270000D03*
G01*
X8382000Y4826000D03*
G01*
X8382000Y4572000D03*
G01*
X8382000Y4318000D03*
G01*
X8382000Y4064000D03*
G01*
X8382000Y3810000D03*
G01*
X8382000Y3556000D03*
G01*
X8382000Y3302000D03*
G01*
X8382000Y3048000D03*
G01*
X8382000Y2794000D03*
G01*
X8382000Y2540000D03*
G01*
X8382000Y2286000D03*
G01*
X8382000Y2032000D03*
G01*
X8382000Y1778000D03*
G01*
X8382000Y1524000D03*
G01*
X8382000Y1270000D03*
G01*
X8382000Y1016000D03*
G01*
X8636000Y1016000D03*
G01*
X8636000Y1270000D03*
G01*
X8636000Y1524000D03*
G01*
X8636000Y1778000D03*
G01*
X8636000Y2032000D03*
G01*
X8636000Y2286000D03*
G01*
X8636000Y2540000D03*
G01*
X8636000Y2794000D03*
G01*
X8636000Y3048000D03*
G01*
X8636000Y3302000D03*
G01*
X8636000Y3556000D03*
G01*
X8636000Y3810000D03*
G01*
X8636000Y4064000D03*
G01*
X8636000Y4318000D03*
G01*
X8636000Y4572000D03*
G01*
X8636000Y4826000D03*
G01*
X8128000Y1016000D03*
G01*
X7874000Y1016000D03*
G01*
X7620000Y1016000D03*
G01*
X7620000Y1270000D03*
G01*
X7874000Y1270000D03*
G01*
X8128000Y1270000D03*
D20*
G01*
X10464800Y6197600D03*
G01*
X10210800Y6197600D03*
M02*
