G04 Layer: BottomPasteMaskLayer*
G04 EasyEDA v6.5.54, 2026-02-03 19:04:38*
G04 9173210c2a1045c2b90a711feb310df5,b3696df828ae431383eed25e92d68677,10*
G04 Gerber Generator version 0.2*
G04 Scale: 100 percent, Rotated: No, Reflected: No *
G04 Dimensions in millimeters *
G04 leading zeros omitted , absolute positions ,4 integer and 5 decimal *
%FSLAX45Y45*%
%MOMM*%

%AMMACRO1*21,1,$1,$2,0,0,$3*%
%ADD10MACRO1,4X6X-90.0000*%
%ADD11MACRO1,4X6X90.0000*%
%ADD12C,0.0104*%

%LPD*%
G36*
X9384792Y5796127D02*
G01*
X9379813Y5791098D01*
X9379813Y5676087D01*
X9384792Y5671108D01*
X9425787Y5670600D01*
X9425787Y5715609D01*
X9470796Y5715609D01*
X9470796Y5671616D01*
X9512808Y5671108D01*
X9517786Y5676087D01*
X9517786Y5791098D01*
X9512808Y5796127D01*
G37*
G36*
X9384792Y5581091D02*
G01*
X9379813Y5576112D01*
X9379813Y5461101D01*
X9384792Y5456123D01*
X9512808Y5456123D01*
X9517786Y5461101D01*
X9517786Y5576112D01*
X9512808Y5581091D01*
X9470796Y5581091D01*
X9470796Y5536590D01*
X9425787Y5536590D01*
X9425787Y5580583D01*
G37*
G36*
X9814712Y768299D02*
G01*
X9814712Y723290D01*
X9769703Y723290D01*
X9769703Y767283D01*
X9727692Y767791D01*
X9722713Y762812D01*
X9722713Y647801D01*
X9727692Y642772D01*
X9855708Y642772D01*
X9860686Y647801D01*
X9860686Y762812D01*
X9855708Y767791D01*
G37*
G36*
X9727692Y982776D02*
G01*
X9722713Y977798D01*
X9722713Y862787D01*
X9727692Y857808D01*
X9769703Y857808D01*
X9769703Y902309D01*
X9814712Y902309D01*
X9814712Y858316D01*
X9855708Y857808D01*
X9860686Y862787D01*
X9860686Y977798D01*
X9855708Y982776D01*
G37*
G36*
X9484512Y768299D02*
G01*
X9484512Y723290D01*
X9439503Y723290D01*
X9439503Y767283D01*
X9397492Y767791D01*
X9392513Y762812D01*
X9392513Y647801D01*
X9397492Y642772D01*
X9525508Y642772D01*
X9530486Y647801D01*
X9530486Y762812D01*
X9525508Y767791D01*
G37*
G36*
X9397492Y982776D02*
G01*
X9392513Y977798D01*
X9392513Y862787D01*
X9397492Y857808D01*
X9439503Y857808D01*
X9439503Y902309D01*
X9484512Y902309D01*
X9484512Y858316D01*
X9525508Y857808D01*
X9530486Y862787D01*
X9530486Y977798D01*
X9525508Y982776D01*
G37*
G36*
X10146792Y5796127D02*
G01*
X10141813Y5791098D01*
X10141813Y5676087D01*
X10146792Y5671108D01*
X10187787Y5670600D01*
X10187787Y5715609D01*
X10232796Y5715609D01*
X10232796Y5671616D01*
X10274808Y5671108D01*
X10279786Y5676087D01*
X10279786Y5791098D01*
X10274808Y5796127D01*
G37*
G36*
X10146792Y5581091D02*
G01*
X10141813Y5576112D01*
X10141813Y5461101D01*
X10146792Y5456123D01*
X10274808Y5456123D01*
X10279786Y5461101D01*
X10279786Y5576112D01*
X10274808Y5581091D01*
X10232796Y5581091D01*
X10232796Y5536590D01*
X10187787Y5536590D01*
X10187787Y5580583D01*
G37*
D10*
G01*
X10361726Y4626635D03*
G01*
X10361752Y1616633D03*
G01*
X9221749Y1616633D03*
G01*
X9221749Y4626635D03*
D11*
G01*
X6288023Y3221990D03*
G01*
X6287998Y6231991D03*
G01*
X7428001Y6231991D03*
G01*
X7428001Y3221990D03*
M02*
