G04 Layer: BottomSilkscreenLayer*
G04 EasyEDA v6.5.54, 2026-02-03 19:04:38*
G04 9173210c2a1045c2b90a711feb310df5,b3696df828ae431383eed25e92d68677,10*
G04 Gerber Generator version 0.2*
G04 Scale: 100 percent, Rotated: No, Reflected: No *
G04 Dimensions in millimeters *
G04 leading zeros omitted , absolute positions ,4 integer and 5 decimal *
%FSLAX45Y45*%
%MOMM*%

%ADD10C,0.2032*%
%ADD11C,0.1524*%
%ADD12C,0.2540*%
%ADD13C,0.0179*%

%LPD*%
D10*
X6887301Y5079431D02*
G01*
X6978210Y5079431D01*
X6987301Y4997612D01*
X6978210Y5006703D01*
X6950938Y5015793D01*
X6923664Y5015793D01*
X6896392Y5006703D01*
X6878210Y4988521D01*
X6869120Y4961249D01*
X6869120Y4943066D01*
X6878210Y4915794D01*
X6896392Y4897612D01*
X6923664Y4888522D01*
X6950938Y4888522D01*
X6978210Y4897612D01*
X6987301Y4906703D01*
X6996391Y4924884D01*
X6809120Y5079431D02*
G01*
X6736392Y4888522D01*
X6663664Y5079431D02*
G01*
X6736392Y4888522D01*
X9787818Y2932181D02*
G01*
X9796909Y2904909D01*
X9815090Y2886727D01*
X9842362Y2877637D01*
X9851453Y2877637D01*
X9878728Y2886727D01*
X9896909Y2904909D01*
X9906000Y2932181D01*
X9906000Y2941271D01*
X9896909Y2968546D01*
X9878728Y2986727D01*
X9851453Y2995818D01*
X9842362Y2995818D01*
X9815090Y2986727D01*
X9796909Y2968546D01*
X9787818Y2932181D01*
X9787818Y2886727D01*
X9796909Y2841271D01*
X9815090Y2813999D01*
X9842362Y2804909D01*
X9860546Y2804909D01*
X9887818Y2813999D01*
X9896909Y2832181D01*
X9727818Y2995818D02*
G01*
X9655091Y2804909D01*
X9582363Y2995818D02*
G01*
X9655091Y2804909D01*
X9855200Y1222202D02*
G01*
X9836726Y1231437D01*
X9809017Y1259146D01*
X9809017Y1065184D01*
X9692640Y1259146D02*
G01*
X9720348Y1249911D01*
X9738822Y1222202D01*
X9748057Y1176020D01*
X9748057Y1148311D01*
X9738822Y1102128D01*
X9720348Y1074420D01*
X9692640Y1065184D01*
X9674166Y1065184D01*
X9646457Y1074420D01*
X9627984Y1102128D01*
X9618748Y1148311D01*
X9618748Y1176020D01*
X9627984Y1222202D01*
X9646457Y1249911D01*
X9674166Y1259146D01*
X9692640Y1259146D01*
X9557788Y1259146D02*
G01*
X9557788Y1065184D01*
X9428479Y1259146D02*
G01*
X9557788Y1129837D01*
X9511606Y1176020D02*
G01*
X9428479Y1065184D01*
X10074564Y5683364D02*
G01*
X10074564Y5692602D01*
X10065326Y5711075D01*
X10056091Y5720311D01*
X10037617Y5729546D01*
X10000673Y5729546D01*
X9982200Y5720311D01*
X9972964Y5711075D01*
X9963726Y5692602D01*
X9963726Y5674128D01*
X9972964Y5655655D01*
X9991435Y5627946D01*
X10083800Y5535584D01*
X9954491Y5535584D01*
X9884295Y5683364D02*
G01*
X9884295Y5692602D01*
X9875057Y5711075D01*
X9865822Y5720311D01*
X9847348Y5729546D01*
X9810404Y5729546D01*
X9791931Y5720311D01*
X9782695Y5711075D01*
X9773457Y5692602D01*
X9773457Y5674128D01*
X9782695Y5655655D01*
X9801166Y5627946D01*
X9893531Y5535584D01*
X9764222Y5535584D01*
X9647844Y5729546D02*
G01*
X9675553Y5720311D01*
X9694024Y5692602D01*
X9703262Y5646420D01*
X9703262Y5618711D01*
X9694024Y5572528D01*
X9675553Y5544820D01*
X9647844Y5535584D01*
X9629371Y5535584D01*
X9601662Y5544820D01*
X9583188Y5572528D01*
X9573953Y5618711D01*
X9573953Y5646420D01*
X9583188Y5692602D01*
X9601662Y5720311D01*
X9629371Y5729546D01*
X9647844Y5729546D01*
D11*
X8736586Y3132124D02*
G01*
X8814518Y3132124D01*
X8830104Y3126930D01*
X8840495Y3116539D01*
X8845689Y3100951D01*
X8845689Y3090560D01*
X8840495Y3074974D01*
X8830104Y3064583D01*
X8814518Y3059389D01*
X8736586Y3059389D01*
X8736586Y3014708D02*
G01*
X8736586Y2957558D01*
X8778151Y2988729D01*
X8778151Y2973143D01*
X8783345Y2962752D01*
X8788539Y2957558D01*
X8804127Y2952361D01*
X8814518Y2952361D01*
X8830104Y2957558D01*
X8840495Y2967949D01*
X8845689Y2983534D01*
X8845689Y2999120D01*
X8840495Y3014708D01*
X8835301Y3019902D01*
X8824909Y3025099D01*
D10*
X10397535Y2136688D02*
G01*
X10397535Y1970318D01*
X9124480Y2023630D02*
G01*
X9290596Y2023630D01*
X9207538Y2106688D02*
G01*
X9207538Y1940318D01*
X10387535Y4326684D02*
G01*
X10387535Y4160314D01*
X10006360Y2131794D02*
G01*
X10024902Y2122396D01*
X10043190Y2103854D01*
X10052588Y2085566D01*
X10061732Y2057880D01*
X10061732Y2011652D01*
X10052588Y1983966D01*
X10043190Y1965424D01*
X10024902Y1946882D01*
X10006360Y1937738D01*
X9969276Y1937738D01*
X9950988Y1946882D01*
X9932446Y1965424D01*
X9923302Y1983966D01*
X9913904Y2011652D01*
X9913904Y2057880D01*
X9923302Y2085566D01*
X9932446Y2103854D01*
X9950988Y2122396D01*
X9969276Y2131794D01*
X10006360Y2131794D01*
X9852944Y2131794D02*
G01*
X9852944Y1993110D01*
X9843800Y1965424D01*
X9825258Y1946882D01*
X9797572Y1937738D01*
X9779030Y1937738D01*
X9751344Y1946882D01*
X9733056Y1965424D01*
X9723658Y1993110D01*
X9723658Y2131794D01*
X9598182Y2131794D02*
G01*
X9598182Y1937738D01*
X9662698Y2131794D02*
G01*
X9533412Y2131794D01*
X9881649Y4371555D02*
G01*
X9881649Y4177753D01*
X9820689Y4371555D02*
G01*
X9820689Y4177753D01*
X9820689Y4371555D02*
G01*
X9691403Y4177753D01*
X9691403Y4371555D02*
G01*
X9691403Y4177753D01*
X9114363Y4253565D02*
G01*
X9280733Y4253565D01*
X9197421Y4336623D02*
G01*
X9197421Y4170253D01*
D11*
X7913080Y4716480D02*
G01*
X7835102Y4716480D01*
X7819608Y4721560D01*
X7809194Y4731974D01*
X7804114Y4747722D01*
X7804114Y4758136D01*
X7809194Y4773630D01*
X7819608Y4784044D01*
X7835102Y4789124D01*
X7913080Y4789124D01*
X7887172Y4828748D02*
G01*
X7892252Y4828748D01*
X7902666Y4833828D01*
X7908000Y4839162D01*
X7913080Y4849576D01*
X7913080Y4870150D01*
X7908000Y4880564D01*
X7902666Y4885898D01*
X7892252Y4890978D01*
X7881838Y4890978D01*
X7871424Y4885898D01*
X7855930Y4875484D01*
X7804114Y4823414D01*
X7804114Y4896312D01*
D10*
X6252209Y5711946D02*
G01*
X6252209Y5878316D01*
X7525265Y5825004D02*
G01*
X7359149Y5825004D01*
X7442207Y5741946D02*
G01*
X7442207Y5908316D01*
X6262209Y3521951D02*
G01*
X6262209Y3688321D01*
X6643385Y5716841D02*
G01*
X6624843Y5726239D01*
X6606555Y5744781D01*
X6597157Y5763069D01*
X6588013Y5790755D01*
X6588013Y5836983D01*
X6597157Y5864669D01*
X6606555Y5883211D01*
X6624843Y5901753D01*
X6643385Y5910897D01*
X6680469Y5910897D01*
X6698757Y5901753D01*
X6717299Y5883211D01*
X6726443Y5864669D01*
X6735841Y5836983D01*
X6735841Y5790755D01*
X6726443Y5763069D01*
X6717299Y5744781D01*
X6698757Y5726239D01*
X6680469Y5716841D01*
X6643385Y5716841D01*
X6796801Y5716841D02*
G01*
X6796801Y5855525D01*
X6805945Y5883211D01*
X6824487Y5901753D01*
X6852173Y5910897D01*
X6870715Y5910897D01*
X6898401Y5901753D01*
X6916689Y5883211D01*
X6926087Y5855525D01*
X6926087Y5716841D01*
X7051563Y5716841D02*
G01*
X7051563Y5910897D01*
X6987047Y5716841D02*
G01*
X7116333Y5716841D01*
X6768096Y3477079D02*
G01*
X6768096Y3670881D01*
X6829056Y3477079D02*
G01*
X6829056Y3670881D01*
X6829056Y3477079D02*
G01*
X6958342Y3670881D01*
X6958342Y3477079D02*
G01*
X6958342Y3670881D01*
X7535382Y3595070D02*
G01*
X7369012Y3595070D01*
X7452324Y3512012D02*
G01*
X7452324Y3678382D01*
G36*
X11963400Y5524500D02*
G01*
X11963400Y4813300D01*
X12090400Y5016500D01*
X12115800Y5118100D01*
X12090400Y5270500D01*
X12039600Y5422900D01*
G37*
G36*
X11239500Y2984500D02*
G01*
X11112500Y2781300D01*
X11087100Y2679700D01*
X11112500Y2527300D01*
X11163300Y2374900D01*
X11239500Y2273300D01*
G37*
G36*
X11252200Y444500D02*
G01*
X11125200Y241300D01*
X11099800Y139700D01*
X11125200Y-12700D01*
X11176000Y-165100D01*
X11252200Y-266700D01*
G37*
D12*
X11328400Y4940300D02*
G01*
X11430000Y4940300D01*
X11379200Y4889500D02*
G01*
X11379200Y4991100D01*
X11874500Y2857500D02*
G01*
X11772900Y2857500D01*
X11823700Y2908300D02*
G01*
X11823700Y2806700D01*
X11887200Y317500D02*
G01*
X11785600Y317500D01*
X11836400Y368300D02*
G01*
X11836400Y266700D01*
D11*
X9540509Y5578480D02*
G01*
X9540509Y5449986D01*
X9357090Y5449986D01*
X9357090Y5578480D01*
X9540509Y5673719D02*
G01*
X9540509Y5802213D01*
X9357090Y5802213D01*
X9357090Y5673719D01*
X9699990Y860419D02*
G01*
X9699990Y988913D01*
X9883409Y988913D01*
X9883409Y860419D01*
X9699990Y765180D02*
G01*
X9699990Y636686D01*
X9883409Y636686D01*
X9883409Y765180D01*
X9369790Y860419D02*
G01*
X9369790Y988913D01*
X9553209Y988913D01*
X9553209Y860419D01*
X9369790Y765180D02*
G01*
X9369790Y636686D01*
X9553209Y636686D01*
X9553209Y765180D01*
X10302509Y5578480D02*
G01*
X10302509Y5449986D01*
X10119090Y5449986D01*
X10119090Y5578480D01*
X10302509Y5673719D02*
G01*
X10302509Y5802213D01*
X10119090Y5802213D01*
X10119090Y5673719D01*
D12*
X9544857Y4776632D02*
G01*
X10038633Y4776632D01*
X7104888Y3072003D02*
G01*
X6611111Y3072003D01*
G75*
G01
X12107672Y5168900D02*
G03X12107672Y5168900I-499872J0D01*
G75*
G01
X12094972Y2628900D02*
G03X12094972Y2628900I-499872J0D01*
G75*
G01
X12107672Y88900D02*
G03X12107672Y88900I-499872J0D01*
M02*
