G04 Layer: BottomLayer*
G04 EasyEDA v6.5.54, 2026-02-03 19:04:38*
G04 9173210c2a1045c2b90a711feb310df5,b3696df828ae431383eed25e92d68677,10*
G04 Gerber Generator version 0.2*
G04 Scale: 100 percent, Rotated: No, Reflected: No *
G04 Dimensions in millimeters *
G04 leading zeros omitted , absolute positions ,4 integer and 5 decimal *
%FSLAX45Y45*%
%MOMM*%

%AMMACRO1*21,1,$1,$2,0,0,$3*%
%ADD10C,1.2540*%
%ADD11R,1.3770X1.1325*%
%ADD12MACRO1,1.377X1.1325X0.0000*%
%ADD13MACRO1,4X6X-90.0000*%
%ADD14MACRO1,4X6X90.0000*%
%ADD15C,1.5240*%
%ADD16C,1.5748*%
%ADD17R,1.5748X1.5748*%
%ADD18R,0.0197X1.5748*%
%ADD19R,1.5240X1.5240*%
%ADD20C,2.5000*%
%ADD21C,1.8000*%
%ADD22R,1.5748X1.7000*%
%ADD23C,1.7000*%
%ADD24C,1.6510*%
%ADD25C,1.6000*%
%ADD26C,0.6100*%

%LPD*%
D10*
X10440543Y956767D02*
G01*
X10797514Y599795D01*
X10797514Y-365683D01*
X10968685Y-536854D01*
X9448800Y6197600D02*
G01*
X9448800Y5726099D01*
X10210800Y6197600D02*
G01*
X10210800Y5726099D01*
X5842000Y170535D02*
G01*
X5837986Y166522D01*
X5837986Y-8001D01*
X5842000Y381000D02*
G01*
X5842000Y170535D01*
X4648200Y2781300D02*
G01*
X4821859Y2607640D01*
X4821859Y833678D01*
X5588127Y67411D01*
X5588127Y-73253D01*
X6048375Y-533501D01*
X6629501Y-533501D01*
X6807200Y-711200D01*
X8216900Y-596900D02*
G01*
X8216900Y-1196568D01*
X7878749Y-224154D02*
G01*
X7878749Y-451688D01*
X6955840Y-1374597D01*
X6003061Y-1374597D01*
X4502886Y125577D01*
X4502886Y352780D01*
X4465751Y389915D01*
X4465751Y2344851D01*
X4648200Y2527300D01*
X7358761Y2927095D02*
G01*
X7358761Y2529204D01*
X7855965Y2032000D01*
X10968685Y-790854D02*
G01*
X10503788Y-325958D01*
X10503788Y655929D01*
X9616643Y1278331D02*
G01*
X9616643Y5303138D01*
X10968685Y3019145D02*
G01*
X10968685Y3273145D01*
X10968685Y5559145D02*
G01*
X10968685Y5813145D01*
X10968685Y479145D02*
G01*
X10968685Y733145D01*
X12238481Y-536702D02*
G01*
X12409601Y-365582D01*
X12409601Y1876323D01*
X12282627Y2003297D01*
X12238481Y2003297D01*
X7061200Y-711200D02*
G01*
X7061200Y-330200D01*
X7061200Y50800D02*
G01*
X7061200Y-330200D01*
X8991600Y165100D02*
G01*
X8991600Y637235D01*
X9267164Y912799D01*
X7428001Y6231991D02*
G01*
X7589748Y6393738D01*
X7796098Y6393738D01*
X9417278Y912799D02*
G01*
X9267164Y912799D01*
X9791700Y912799D02*
G01*
X9791700Y1003858D01*
X9791700Y1003858D02*
G01*
X9791700Y1094917D01*
X9791700Y1003858D02*
G01*
X10007600Y787958D01*
X10007600Y165100D01*
X9417278Y912799D02*
G01*
X9461500Y912799D01*
X9461500Y1094917D02*
G01*
X9791700Y1094917D01*
X9461500Y912799D02*
G01*
X9461500Y1094917D01*
X10968685Y3273145D02*
G01*
X11342801Y3647262D01*
X11342801Y3793134D01*
X12092965Y4543297D01*
X12238481Y4543297D01*
X9776459Y1342389D02*
G01*
X9776459Y1697939D01*
X10094569Y2016048D01*
X10495025Y2016048D01*
X8636000Y1016000D02*
G01*
X8902445Y1282445D01*
X9249130Y1282445D01*
X9791700Y712800D02*
G01*
X9725380Y712800D01*
X9650349Y787831D01*
X7169429Y-1408023D02*
G01*
X8037601Y-539851D01*
X8037601Y-481533D01*
X8333866Y-185267D01*
X9447047Y-185267D01*
X9753600Y121285D01*
X9753600Y165100D01*
X4345279Y287477D02*
G01*
X4308119Y324637D01*
X4308119Y2465679D01*
X4472000Y2629560D01*
X6011214Y-786764D02*
G01*
X6477634Y-786764D01*
X6553200Y-711200D01*
X5334000Y2794000D02*
G01*
X5511800Y2616200D01*
X5511800Y655497D01*
X5367375Y511073D01*
X8483600Y165100D02*
G01*
X8203514Y445185D01*
X7937500Y445185D01*
X6623075Y1759610D01*
X12238481Y1749297D02*
G01*
X12238481Y1547621D01*
X12238481Y5813297D02*
G01*
X11861800Y5436615D01*
X11861800Y5168900D01*
X12238481Y4289297D02*
G01*
X12238481Y4087621D01*
X12118340Y853439D02*
G01*
X11353800Y88900D01*
X12118340Y853439D02*
G01*
X12238481Y733297D01*
X12036806Y-790702D02*
G01*
X12036806Y-594105D01*
X11353800Y88900D01*
X12238481Y-790702D02*
G01*
X12036806Y-790702D01*
X5338013Y-8001D02*
G01*
X5338013Y-476859D01*
X6068440Y-1207287D01*
X6819112Y-1207287D01*
X7315200Y-711200D01*
X7315200Y-711200D02*
G01*
X7315200Y-330200D01*
X6350000Y1016000D02*
G01*
X7315200Y50800D01*
X7315200Y50800D02*
G01*
X7315200Y-330200D01*
X8724900Y-596900D02*
G01*
X8898559Y-423240D01*
X9808540Y-423240D01*
X9982200Y-596900D01*
X9982200Y-596900D02*
G01*
X10261600Y-317500D01*
X10261600Y165100D01*
X5334000Y5842000D02*
G01*
X5472531Y5842000D01*
X5862523Y6231991D01*
X6287998Y6231991D02*
G01*
X6117488Y6231991D01*
X6117488Y6231991D02*
G01*
X5862523Y6231991D01*
X6117488Y6231991D02*
G01*
X6117488Y3518992D01*
X6287998Y3221989D02*
G01*
X6287998Y3348481D01*
X6117488Y3518992D01*
X6117488Y3518992D02*
G01*
X6104509Y3518992D01*
X5946952Y3361436D01*
X5924626Y3361436D01*
X5887923Y3324732D01*
X5887923Y2599969D01*
X6030391Y2457500D01*
X6030391Y1335608D01*
X6350000Y1016000D01*
X10361752Y1616633D02*
G01*
X10149027Y1616633D01*
X10149027Y1616633D02*
G01*
X9936276Y1616633D01*
X10797565Y4117898D02*
G01*
X11057381Y4117898D01*
X11861800Y4922316D01*
X11861800Y5168900D01*
X10787202Y4626635D02*
G01*
X10787202Y4128262D01*
X10797565Y4117898D01*
X10210800Y5526100D02*
G01*
X9448800Y5526100D01*
X12238481Y1547621D02*
G01*
X12066270Y1375410D01*
X12066270Y905510D01*
X12118340Y853439D01*
X11341100Y2628900D02*
G01*
X11341100Y2338222D01*
X12131700Y1547621D01*
X12238481Y1547621D01*
X12306300Y4019829D02*
G01*
X13000659Y4714189D01*
X13000659Y5669610D01*
X12856972Y5813297D01*
X12238481Y5813297D01*
X12238481Y4087621D02*
G01*
X12306300Y4019829D01*
X10361726Y4626635D02*
G01*
X10514660Y4626635D01*
X10514660Y4626635D02*
G01*
X10787202Y4626635D01*
X10210800Y5526100D02*
G01*
X10210800Y5343982D01*
X10514660Y4626635D02*
G01*
X10514660Y5125212D01*
X10295890Y5343982D01*
X10210800Y5343982D01*
X12306300Y4019829D02*
G01*
X12354534Y3971569D01*
X12354534Y3851681D01*
X12415621Y3790594D01*
X12415621Y3450437D01*
X12238481Y3273297D01*
X10261600Y165100D02*
G01*
X10261600Y1079677D01*
X9936276Y1405001D01*
X9936276Y1616633D01*
X10149027Y1616633D02*
G01*
X10318521Y1616633D01*
X10797565Y2095677D01*
X10797565Y4117898D01*
X6946011Y719581D02*
G01*
X7692847Y-27254D01*
X9103029Y-27254D01*
X9295384Y165100D01*
X9499600Y165100D02*
G01*
X9402876Y165100D01*
X9402876Y165100D02*
G01*
X9295384Y165100D01*
X9402876Y165100D02*
G01*
X9402876Y472059D01*
X9461500Y530682D01*
X9461500Y712800D02*
G01*
X9461500Y530682D01*
X5839434Y2425369D02*
G01*
X5839434Y1018565D01*
X6807200Y50800D01*
X12512141Y3916984D02*
G01*
X12579350Y3849776D01*
X12579350Y-748969D01*
X12195759Y-1132560D01*
X9731400Y-1132560D01*
X9381591Y-782751D01*
X7422768Y1238377D02*
G01*
X7031507Y1629638D01*
X7031507Y5869101D01*
X7094093Y5931687D01*
X8382000Y1524000D02*
G01*
X8200466Y1705533D01*
X8200466Y5415711D01*
X5334000Y6096000D02*
G01*
X5804103Y6566103D01*
X10319994Y6566103D01*
X10336656Y6549440D01*
X11185194Y3780459D02*
G01*
X11185194Y4022826D01*
X11913438Y4751070D01*
X9221749Y1616633D02*
G01*
X9459010Y1853895D01*
X9459010Y3780459D01*
X10968685Y6067145D02*
G01*
X10705465Y5803925D01*
X10705465Y5638647D01*
X8026984Y5231231D02*
G01*
X8026984Y1752015D01*
X8042833Y1736166D01*
X9835921Y3073984D02*
G01*
X9835921Y4736922D01*
X10165638Y5066639D01*
X10350322Y5066639D01*
X8636000Y1524000D02*
G01*
X8826804Y1714804D01*
X8826804Y2379751D01*
X9236532Y2789478D01*
X9236532Y3073984D01*
X12238481Y3527297D02*
G01*
X11849100Y3137915D01*
X11849100Y2628900D01*
X12238481Y6067297D02*
G01*
X11353800Y5182615D01*
X11353800Y5168900D01*
X7428001Y3221989D02*
G01*
X7853476Y3221989D01*
X8420201Y5428183D02*
G01*
X9379356Y6387337D01*
X10892129Y6387337D01*
X11353800Y5925667D01*
X11353800Y5168900D01*
X9221749Y4626635D02*
G01*
X8420201Y5428183D01*
X8420201Y5428183D02*
G01*
X8264093Y5584291D01*
X8144992Y5584291D01*
X7853476Y5292775D01*
X7853476Y3221989D01*
X11849100Y2628900D02*
G01*
X12003963Y2474036D01*
X12003963Y1898243D01*
X9474200Y-596900D02*
G01*
X9847249Y-969949D01*
X11041227Y-969949D01*
X11146231Y-864946D01*
X11146231Y1311376D01*
X10795939Y1661668D01*
X8636000Y4826000D02*
G01*
X8818879Y4643120D01*
X8818879Y2690139D01*
X11638406Y3865854D02*
G01*
X11638406Y3168142D01*
X11169878Y2699613D01*
X11169878Y1950338D01*
X10968685Y1749145D01*
D11*
G01*
X9448800Y5526100D03*
D12*
G01*
X9448800Y5726104D03*
D11*
G01*
X9791700Y912799D03*
D12*
G01*
X9791700Y712795D03*
D11*
G01*
X9461500Y912799D03*
D12*
G01*
X9461500Y712795D03*
D11*
G01*
X10210800Y5526100D03*
D12*
G01*
X10210800Y5726104D03*
D13*
G01*
X10361734Y4626637D03*
G01*
X10361739Y1616643D03*
G01*
X9221736Y1616643D03*
G01*
X9221736Y4626637D03*
D14*
G01*
X6288011Y3221997D03*
G01*
X6288006Y6231991D03*
G01*
X7428009Y6231991D03*
G01*
X7428009Y3221997D03*
D15*
G01*
X11353800Y5168900D03*
G01*
X11861800Y5168900D03*
G01*
X11849100Y2628900D03*
G01*
X11341100Y2628900D03*
G01*
X11861800Y88900D03*
G01*
X11353800Y88900D03*
D16*
G01*
X4648200Y5829300D03*
G01*
X4648200Y5575300D03*
G01*
X4648200Y5321300D03*
G01*
X4648200Y5067300D03*
G01*
X4648200Y4813300D03*
G01*
X4648200Y4559300D03*
G01*
X4648200Y4305300D03*
G01*
X4648200Y4051300D03*
G01*
X4648200Y3797300D03*
G01*
X4648200Y3543300D03*
G01*
X4648200Y3289300D03*
G01*
X4648200Y3035300D03*
G01*
X4648200Y2781300D03*
G01*
X4648200Y2527300D03*
G01*
X4648200Y2273300D03*
G01*
X4648200Y2019300D03*
G01*
X4648200Y1765300D03*
G01*
X4648200Y1511300D03*
G01*
X4648200Y1257300D03*
D17*
G01*
X4648200Y1003300D03*
D16*
G01*
X8991600Y165100D03*
G01*
X8737600Y165100D03*
G01*
X8483600Y165100D03*
G01*
X8229600Y165100D03*
D17*
G01*
X7975600Y165100D03*
G01*
X9499600Y165100D03*
D16*
G01*
X9753600Y165100D03*
G01*
X10007600Y165100D03*
G01*
X10261600Y165100D03*
G01*
X9982200Y-596900D03*
G01*
X9728200Y-596900D03*
D17*
G01*
X9474200Y-596900D03*
D16*
G01*
X8724900Y-596900D03*
G01*
X8470900Y-596900D03*
D17*
G01*
X8216900Y-596900D03*
D16*
G01*
X6807200Y-330200D03*
G01*
X7061200Y-330200D03*
D17*
G01*
X7315200Y-330200D03*
D16*
G01*
X6807200Y50800D03*
G01*
X7061200Y50800D03*
D17*
G01*
X7315200Y50800D03*
G01*
X7315200Y-711200D03*
D16*
G01*
X7061200Y-711200D03*
G01*
X6807200Y-711200D03*
G01*
X6553200Y-711200D03*
D19*
G01*
X12238481Y-790702D03*
D15*
G01*
X12238481Y-536702D03*
G01*
X12238481Y-282702D03*
G01*
X12238481Y-28702D03*
G01*
X12238481Y225297D03*
G01*
X12238481Y479297D03*
G01*
X12238481Y733297D03*
G01*
X12238481Y987297D03*
G01*
X10968685Y987145D03*
G01*
X10968685Y733145D03*
G01*
X10968685Y479145D03*
G01*
X10968685Y225145D03*
G01*
X10968685Y-28854D03*
G01*
X10968685Y-282854D03*
G01*
X10968685Y-536854D03*
G01*
X10968685Y-790854D03*
D19*
G01*
X12238481Y4289297D03*
D15*
G01*
X12238481Y4543297D03*
G01*
X12238481Y4797297D03*
G01*
X12238481Y5051297D03*
G01*
X12238481Y5305297D03*
G01*
X12238481Y5559297D03*
G01*
X12238481Y5813297D03*
G01*
X12238481Y6067297D03*
G01*
X10968685Y6067145D03*
G01*
X10968685Y5813145D03*
G01*
X10968685Y5559145D03*
G01*
X10968685Y5305145D03*
G01*
X10968685Y5051145D03*
G01*
X10968685Y4797145D03*
G01*
X10968685Y4543145D03*
G01*
X10968685Y4289145D03*
D19*
G01*
X12238481Y1749297D03*
D15*
G01*
X12238481Y2003297D03*
G01*
X12238481Y2257297D03*
G01*
X12238481Y2511297D03*
G01*
X12238481Y2765297D03*
G01*
X12238481Y3019297D03*
G01*
X12238481Y3273297D03*
G01*
X12238481Y3527297D03*
G01*
X10968685Y3527145D03*
G01*
X10968685Y3273145D03*
G01*
X10968685Y3019145D03*
G01*
X10968685Y2765145D03*
G01*
X10968685Y2511145D03*
G01*
X10968685Y2257145D03*
G01*
X10968685Y2003145D03*
G01*
X10968685Y1749145D03*
D17*
G01*
X12827000Y635000D03*
D16*
G01*
X12827000Y381000D03*
G01*
X12827000Y127000D03*
G01*
X12827000Y-127000D03*
D20*
G01*
X5338013Y-8001D03*
G01*
X5837986Y-8001D03*
D21*
G01*
X6138011Y-1007998D03*
G01*
X5037988Y-1007998D03*
D17*
G01*
X12839700Y3022600D03*
D16*
G01*
X12839700Y2768600D03*
G01*
X12839700Y2514600D03*
G01*
X12839700Y2260600D03*
D17*
G01*
X12827000Y5549900D03*
D16*
G01*
X12827000Y5295900D03*
G01*
X12827000Y5041900D03*
G01*
X12827000Y4787900D03*
D22*
G01*
X5842000Y381000D03*
D23*
G01*
X5842000Y635000D03*
D24*
G01*
X9702800Y6197600D03*
G01*
X9448800Y6197600D03*
D25*
G01*
X5080000Y6096000D03*
G01*
X5080000Y5842000D03*
G01*
X5080000Y5588000D03*
G01*
X5080000Y5334000D03*
G01*
X5080000Y5080000D03*
G01*
X5080000Y4826000D03*
G01*
X5080000Y4572000D03*
G01*
X5080000Y4318000D03*
G01*
X5080000Y4064000D03*
G01*
X5080000Y3810000D03*
G01*
X5080000Y3556000D03*
G01*
X5080000Y3302000D03*
G01*
X5080000Y3048000D03*
G01*
X5080000Y2794000D03*
G01*
X5080000Y2540000D03*
G01*
X5080000Y2286000D03*
G01*
X5080000Y2032000D03*
G01*
X5080000Y1778000D03*
G01*
X5080000Y1524000D03*
G01*
X5080000Y1270000D03*
G01*
X5080000Y1016000D03*
G01*
X5334000Y1016000D03*
G01*
X5334000Y1270000D03*
G01*
X5334000Y1524000D03*
G01*
X5334000Y1778000D03*
G01*
X5334000Y2032000D03*
G01*
X5334000Y2286000D03*
G01*
X5334000Y2540000D03*
G01*
X5334000Y2794000D03*
G01*
X5334000Y3048000D03*
G01*
X5334000Y3302000D03*
G01*
X5334000Y3556000D03*
G01*
X5334000Y3810000D03*
G01*
X5334000Y4064000D03*
G01*
X5334000Y4318000D03*
G01*
X5334000Y4572000D03*
G01*
X5334000Y4826000D03*
G01*
X5334000Y5080000D03*
G01*
X5334000Y5334000D03*
G01*
X5334000Y5588000D03*
G01*
X5334000Y5842000D03*
G01*
X5334000Y6096000D03*
G01*
X6350000Y1016000D03*
G01*
X6604000Y1016000D03*
G01*
X6858000Y1016000D03*
G01*
X6858000Y1270000D03*
G01*
X6604000Y1270000D03*
G01*
X6350000Y1270000D03*
G01*
X8382000Y4826000D03*
G01*
X8382000Y4572000D03*
G01*
X8382000Y4318000D03*
G01*
X8382000Y4064000D03*
G01*
X8382000Y3810000D03*
G01*
X8382000Y3556000D03*
G01*
X8382000Y3302000D03*
G01*
X8382000Y3048000D03*
G01*
X8382000Y2794000D03*
G01*
X8382000Y2540000D03*
G01*
X8382000Y2286000D03*
G01*
X8382000Y2032000D03*
G01*
X8382000Y1778000D03*
G01*
X8382000Y1524000D03*
G01*
X8382000Y1270000D03*
G01*
X8382000Y1016000D03*
G01*
X8636000Y1016000D03*
G01*
X8636000Y1270000D03*
G01*
X8636000Y1524000D03*
G01*
X8636000Y1778000D03*
G01*
X8636000Y2032000D03*
G01*
X8636000Y2286000D03*
G01*
X8636000Y2540000D03*
G01*
X8636000Y2794000D03*
G01*
X8636000Y3048000D03*
G01*
X8636000Y3302000D03*
G01*
X8636000Y3556000D03*
G01*
X8636000Y3810000D03*
G01*
X8636000Y4064000D03*
G01*
X8636000Y4318000D03*
G01*
X8636000Y4572000D03*
G01*
X8636000Y4826000D03*
G01*
X8128000Y1016000D03*
G01*
X7874000Y1016000D03*
G01*
X7620000Y1016000D03*
G01*
X7620000Y1270000D03*
G01*
X7874000Y1270000D03*
G01*
X8128000Y1270000D03*
D24*
G01*
X10464800Y6197600D03*
G01*
X10210800Y6197600D03*
D26*
G01*
X11638406Y3865854D03*
G01*
X8818879Y2690139D03*
G01*
X10795939Y1661668D03*
G01*
X12003963Y1898243D03*
G01*
X10350322Y5066639D03*
G01*
X9835921Y3073984D03*
G01*
X9236532Y3073984D03*
G01*
X8026984Y5231231D03*
G01*
X10705465Y5638647D03*
G01*
X8042833Y1736166D03*
G01*
X11185194Y3780459D03*
G01*
X9459010Y3780459D03*
G01*
X11913438Y4751070D03*
G01*
X10336656Y6549440D03*
G01*
X8200466Y5415711D03*
G01*
X7422768Y1238377D03*
G01*
X7094093Y5931687D03*
G01*
X12512141Y3916984D03*
G01*
X9381591Y-782751D03*
G01*
X5839434Y2425369D03*
G01*
X6946011Y719581D03*
G01*
X6623075Y1759610D03*
G01*
X6011214Y-786764D03*
G01*
X5367375Y511073D03*
G01*
X7169429Y-1408023D03*
G01*
X4345279Y287477D03*
G01*
X4472000Y2629560D03*
G01*
X9650349Y787831D03*
G01*
X10495025Y2016048D03*
G01*
X9776459Y1342389D03*
G01*
X9249130Y1282445D03*
G01*
X7796098Y6393738D03*
G01*
X10503788Y655929D03*
G01*
X9616643Y1278331D03*
G01*
X9616643Y5303138D03*
G01*
X7358761Y2927095D03*
G01*
X7855965Y2032000D03*
G01*
X7878749Y-224154D03*
G01*
X8216900Y-1196568D03*
G01*
X10440543Y956767D03*
M02*
