ISO-10303-21;
HEADER;
FILE_DESCRIPTION(('STEP AP242'),
    '1');
FILE_NAME('Деталь',
    '',
    ('UNSPECIFIED'),
    ('UNSPECIFIED'),
    'C3D Converter',
    'C3D Toolkit',
    '');
FILE_SCHEMA(('AP242_MANAGED_MODEL_BASED_3D_ENGINEERING_MIM_LF { 1 0 10303 442 1 1 4 }'));
ENDSEC;

DATA;
#1=PRODUCT_DEFINITION('','UNSPECIFIED',#28,#31);
#2=SHAPE_DEFINITION_REPRESENTATION(#26,#3);
#3=SHAPE_REPRESENTATION('NONE',(#4),#8);
#4=AXIS2_PLACEMENT_3D('',#5,#6,#7);
#5=CARTESIAN_POINT('',(0.,0.,0.));
#6=DIRECTION('',(0.,0.,1.));
#7=DIRECTION('',(1.,0.,0.));
#8=(GEOMETRIC_REPRESENTATION_CONTEXT(3)GLOBAL_UNCERTAINTY_ASSIGNED_CONTEXT((#10))
GLOBAL_UNIT_ASSIGNED_CONTEXT((#9,#11,#12))REPRESENTATION_CONTEXT('NONE','NONE'));
#9=(LENGTH_UNIT()NAMED_UNIT(*)SI_UNIT(.MILLI.,.METRE.));
#10=UNCERTAINTY_MEASURE_WITH_UNIT(LENGTH_MEASURE(1.E-5),#9,'NONE','NONE');
#11=(NAMED_UNIT(*)PLANE_ANGLE_UNIT()SI_UNIT($,.RADIAN.));
#12=(NAMED_UNIT(*)SI_UNIT($,.STERADIAN.)SOLID_ANGLE_UNIT());
#13=MANIFOLD_SOLID_BREP('',#14);
#14=CLOSED_SHELL('',(#53,#54,#55,#56,#57,#58,#59,#60,#61,#62,#63,#64,#65,#66,#67,
#68,#69,#70,#71,#72));
#15=COLOUR_RGB('',0.564705882352941,0.564705882352941,0.564705882352941);
#16=FILL_AREA_STYLE_COLOUR('',#15);
#17=FILL_AREA_STYLE($,(#16));
#18=SURFACE_STYLE_FILL_AREA(#17);
#19=SURFACE_SIDE_STYLE('',(#18));
#20=SURFACE_STYLE_USAGE(.BOTH.,#19);
#21=PRESENTATION_STYLE_ASSIGNMENT((#20));
#22=MECHANICAL_DESIGN_GEOMETRIC_PRESENTATION_REPRESENTATION('NONE',(#23),#8);
#23=STYLED_ITEM('',(#21),#13);
#24=ADVANCED_BREP_SHAPE_REPRESENTATION('NONE',(#13),#8);
#25=SHAPE_REPRESENTATION_RELATIONSHIP('','',#3,#24);
#26=PRODUCT_DEFINITION_SHAPE('NONE','NONE',#1);
#27=MECHANICAL_CONTEXT('NONE',#32,'mechanical');
#28=PRODUCT_DEFINITION_FORMATION_WITH_SPECIFIED_SOURCE('ANY','UNSPECIFIED',#29,.NOT_KNOWN.);
#29=PRODUCT('','\X2\0414043504420430043B044C\X0\','NONE',(#27));
#30=PRODUCT_RELATED_PRODUCT_CATEGORY('detail','',(#29));
#31=DESIGN_CONTEXT('detailed design',#32,'design');
#32=APPLICATION_CONTEXT('configuration controlled 3d designs of mechanical parts and assemblies');
#33=APPLICATION_PROTOCOL_DEFINITION('international standard','config_control_design',
1994,#32);
#34=CC_DESIGN_DATE_AND_TIME_ASSIGNMENT(#35,#39,(#1));
#35=DATE_AND_TIME(#36,#37);
#36=CALENDAR_DATE(0,1,1);
#37=LOCAL_TIME(0,0,0.,#38);
#38=COORDINATED_UNIVERSAL_TIME_OFFSET(0,0,.AHEAD.);
#39=DATE_TIME_ROLE('creation_date');
#40=CC_DESIGN_APPROVAL(#41,(#1));
#41=APPROVAL(#42,'UNSPECIFIED');
#42=APPROVAL_STATUS('not_yet_approved');
#43=APPROVAL_DATE_TIME(#44,#41);
#44=DATE_AND_TIME(#45,#46);
#45=CALENDAR_DATE(0,1,1);
#46=LOCAL_TIME(0,0,0.,#47);
#47=COORDINATED_UNIVERSAL_TIME_OFFSET(0,0,.AHEAD.);
#48=PERSON('UNSPECIFIED','matve','UNSPECIFIED',('UNSPECIFIED'),('UNSPECIFIED'),(
'UNSPECIFIED'));
#49=ORGANIZATION('UNSPECIFIED','UNSPECIFIED','UNSPECIFIED');
#50=PERSON_AND_ORGANIZATION(#48,#49);
#51=PERSON_AND_ORGANIZATION_ROLE('creator');
#52=CC_DESIGN_PERSON_AND_ORGANIZATION_ASSIGNMENT(#50,#51,(#28,#1));
#53=ADVANCED_FACE('',(#73,#75),#77,.F.);
#54=ADVANCED_FACE('',(#82,#84,#86),#88,.F.);
#55=ADVANCED_FACE('',(#93,#95,#97),#99,.T.);
#56=ADVANCED_FACE('',(#104),#106,.T.);
#57=ADVANCED_FACE('',(#111),#113,.T.);
#58=ADVANCED_FACE('',(#118,#120),#122,.T.);
#59=ADVANCED_FACE('',(#127),#129,.T.);
#60=ADVANCED_FACE('',(#134),#136,.T.);
#61=ADVANCED_FACE('',(#141),#143,.T.);
#62=ADVANCED_FACE('',(#148),#150,.T.);
#63=ADVANCED_FACE('',(#155),#157,.T.);
#64=ADVANCED_FACE('',(#162),#164,.T.);
#65=ADVANCED_FACE('',(#169,#171),#173,.T.);
#66=ADVANCED_FACE('',(#178,#180),#182,.F.);
#67=ADVANCED_FACE('',(#187,#189),#191,.F.);
#68=ADVANCED_FACE('',(#196,#198),#200,.F.);
#69=ADVANCED_FACE('',(#205,#207),#209,.T.);
#70=ADVANCED_FACE('',(#214,#216),#218,.T.);
#71=ADVANCED_FACE('',(#223,#225),#227,.F.);
#72=ADVANCED_FACE('',(#232,#234),#236,.F.);
#73=FACE_OUTER_BOUND('',#74,.T.);
#74=EDGE_LOOP('',(#241));
#75=FACE_OUTER_BOUND('',#76,.T.);
#76=EDGE_LOOP('',(#242));
#77=CYLINDRICAL_SURFACE('',#78,1.8);
#78=AXIS2_PLACEMENT_3D('',#79,#80,#81);
#79=CARTESIAN_POINT('',(46.1001633384669,-19.95,2.99999999999988));
#80=DIRECTION('',(8.88178419700125E-17,-9.01555320252585E-32,1.));
#81=DIRECTION('',(-1.,1.22464679914735E-16,8.88178419700125E-17));
#82=FACE_BOUND('',#83,.T.);
#83=EDGE_LOOP('',(#243,#244,#245,#246,#247,#248,#249,#250,#251,#252,#253,#254));
#84=FACE_BOUND('',#85,.T.);
#85=EDGE_LOOP('',(#255));
#86=FACE_BOUND('',#87,.T.);
#87=EDGE_LOOP('',(#256));
#88=PLANE('',#89);
#89=AXIS2_PLACEMENT_3D('',#90,#91,#92);
#90=CARTESIAN_POINT('',(41.1001633384669,-7.56562546158419E-15,-2.51665917384434E-15));
#91=DIRECTION('',(1.,-1.83697019872103E-16,-6.12323399573677E-17));
#92=DIRECTION('',(1.83697019872103E-16,1.,6.12323399573676E-17));
#93=FACE_BOUND('',#94,.T.);
#94=EDGE_LOOP('',(#257,#258,#259,#260,#261,#262,#263,#264,#265,#266,#267,#268));
#95=FACE_BOUND('',#96,.T.);
#96=EDGE_LOOP('',(#269));
#97=FACE_BOUND('',#98,.T.);
#98=EDGE_LOOP('',(#270));
#99=PLANE('',#100);
#100=AXIS2_PLACEMENT_3D('',#101,#102,#103);
#101=CARTESIAN_POINT('',(51.1001633384669,-9.40259566030522E-15,-3.12898257341802E-15));
#102=DIRECTION('',(1.,-1.83697019872103E-16,-6.12323399573677E-17));
#103=DIRECTION('',(1.83697019872103E-16,1.,6.12323399573676E-17));
#104=FACE_BOUND('',#105,.T.);
#105=EDGE_LOOP('',(#271,#272,#273,#274));
#106=PLANE('',#107);
#107=AXIS2_PLACEMENT_3D('',#108,#109,#110);
#108=CARTESIAN_POINT('',(41.1001633384669,-23.6,6.));
#109=DIRECTION('',(-3.5527136788005E-16,-1.,0.));
#110=DIRECTION('',(0.,0.,-1.));
#111=FACE_BOUND('',#112,.T.);
#112=EDGE_LOOP('',(#275,#276,#277,#278));
#113=PLANE('',#114);
#114=AXIS2_PLACEMENT_3D('',#115,#116,#117);
#115=CARTESIAN_POINT('',(41.1001633384669,-16.6,20.2));
#116=DIRECTION('',(-3.5527136788005E-16,-1.,-5.00382208281761E-16));
#117=DIRECTION('',(0.,5.00382208281761E-16,-1.));
#118=FACE_BOUND('',#119,.T.);
#119=EDGE_LOOP('',(#279,#280,#281,#282));
#120=FACE_BOUND('',#121,.T.);
#121=EDGE_LOOP('',(#283));
#122=PLANE('',#123);
#123=AXIS2_PLACEMENT_3D('',#124,#125,#126);
#124=CARTESIAN_POINT('',(41.1001633384669,-23.6,4.));
#125=DIRECTION('',(-8.88178419700134E-17,-2.46930253207061E-15,-1.));
#126=DIRECTION('',(6.2712445258936E-16,1.,-2.46930253207061E-15));
#127=FACE_BOUND('',#128,.T.);
#128=EDGE_LOOP('',(#284,#285,#286,#287));
#129=PLANE('',#130);
#130=AXIS2_PLACEMENT_3D('',#131,#132,#133);
#131=CARTESIAN_POINT('',(41.1001633384669,11.369828886016,16.2));
#132=DIRECTION('',(-1.77635683940025E-16,-1.,-2.91206039245942E-16));
#133=DIRECTION('',(0.,2.91206039245942E-16,-1.));
#134=FACE_BOUND('',#135,.T.);
#135=EDGE_LOOP('',(#288,#289,#290,#291));
#136=PLANE('',#137);
#137=AXIS2_PLACEMENT_3D('',#138,#139,#140);
#138=CARTESIAN_POINT('',(41.1001633384669,-12.269828886016,16.2));
#139=DIRECTION('',(0.,0.,-1.));
#140=DIRECTION('',(0.,1.,0.));
#141=FACE_BOUND('',#142,.T.);
#142=EDGE_LOOP('',(#292,#293,#294,#295));
#143=PLANE('',#144);
#144=AXIS2_PLACEMENT_3D('',#145,#146,#147);
#145=CARTESIAN_POINT('',(41.1001633384669,-12.269828886016,3.99999999999998));
#146=DIRECTION('',(1.77635683940025E-16,1.,1.45603019622971E-16));
#147=DIRECTION('',(0.,-1.45603019622971E-16,1.));
#148=FACE_BOUND('',#149,.T.);
#149=EDGE_LOOP('',(#296,#297,#298,#299));
#150=PLANE('',#151);
#151=AXIS2_PLACEMENT_3D('',#152,#153,#154);
#152=CARTESIAN_POINT('',(41.1001633384669,15.7,20.2));
#153=DIRECTION('',(3.5527136788005E-16,-1.09991135566579E-16,1.));
#154=DIRECTION('',(0.,-1.,-1.09991135566579E-16));
#155=FACE_BOUND('',#156,.T.);
#156=EDGE_LOOP('',(#300,#301,#302,#303));
#157=PLANE('',#158);
#158=AXIS2_PLACEMENT_3D('',#159,#160,#161);
#159=CARTESIAN_POINT('',(41.1001633384669,15.7,6.00000000000001));
#160=DIRECTION('',(1.77635683940025E-16,1.,0.));
#161=DIRECTION('',(0.,0.,1.));
#162=FACE_BOUND('',#163,.T.);
#163=EDGE_LOOP('',(#304,#305,#306,#307));
#164=PLANE('',#165);
#165=AXIS2_PLACEMENT_3D('',#166,#167,#168);
#166=CARTESIAN_POINT('',(41.1001633384669,22.7,4.00000000000001));
#167=DIRECTION('',(3.5527136788005E-16,1.,0.));
#168=DIRECTION('',(0.,0.,1.));
#169=FACE_BOUND('',#170,.T.);
#170=EDGE_LOOP('',(#308,#309,#310,#311));
#171=FACE_BOUND('',#172,.T.);
#172=EDGE_LOOP('',(#312));
#173=PLANE('',#174);
#174=AXIS2_PLACEMENT_3D('',#175,#176,#177);
#175=CARTESIAN_POINT('',(41.1001633384669,11.369828886016,3.99999999999998));
#176=DIRECTION('',(-4.44089209850058E-17,2.70447420179162E-15,-1.));
#177=DIRECTION('',(6.2712445258936E-16,1.,2.70447420179162E-15));
#178=FACE_OUTER_BOUND('',#179,.T.);
#179=EDGE_LOOP('',(#313));
#180=FACE_OUTER_BOUND('',#181,.T.);
#181=EDGE_LOOP('',(#314));
#182=CYLINDRICAL_SURFACE('',#183,0.999999999999999);
#183=AXIS2_PLACEMENT_3D('',#184,#185,#186);
#184=CARTESIAN_POINT('',(41.1001633384669,-14.45,10.1));
#185=DIRECTION('',(1.,-1.83697019872103E-16,-6.12323399573677E-17));
#186=DIRECTION('',(1.83697019872103E-16,1.,6.12323399573676E-17));
#187=FACE_OUTER_BOUND('',#188,.T.);
#188=EDGE_LOOP('',(#315));
#189=FACE_OUTER_BOUND('',#190,.T.);
#190=EDGE_LOOP('',(#316));
#191=CYLINDRICAL_SURFACE('',#192,0.999999999999999);
#192=AXIS2_PLACEMENT_3D('',#193,#194,#195);
#193=CARTESIAN_POINT('',(41.1001633384669,13.55,10.1));
#194=DIRECTION('',(1.,-1.83697019872103E-16,-6.12323399573677E-17));
#195=DIRECTION('',(-1.83697019872103E-16,-1.,-6.12323399573676E-17));
#196=FACE_OUTER_BOUND('',#197,.T.);
#197=EDGE_LOOP('',(#317));
#198=FACE_OUTER_BOUND('',#199,.T.);
#199=EDGE_LOOP('',(#318));
#200=CYLINDRICAL_SURFACE('',#201,1.8);
#201=AXIS2_PLACEMENT_3D('',#202,#203,#204);
#202=CARTESIAN_POINT('',(46.1001633384669,19.05,2.99999999999988));
#203=DIRECTION('',(8.88178419700125E-17,-9.01555320252585E-32,1.));
#204=DIRECTION('',(-1.,1.22464679914735E-16,8.88178419700125E-17));
#205=FACE_BOUND('',#206,.T.);
#206=EDGE_LOOP('',(#319,#320,#321,#322));
#207=FACE_BOUND('',#208,.T.);
#208=EDGE_LOOP('',(#323));
#209=PLANE('',#210);
#210=AXIS2_PLACEMENT_3D('',#211,#212,#213);
#211=CARTESIAN_POINT('',(44.3001633384669,-19.95,8.));
#212=DIRECTION('',(8.88178419700125E-17,-9.01555320252585E-32,1.));
#213=DIRECTION('',(-1.22464679914735E-16,-1.,-7.92784834376834E-32));
#214=FACE_BOUND('',#215,.T.);
#215=EDGE_LOOP('',(#324,#325,#326,#327));
#216=FACE_BOUND('',#217,.T.);
#217=EDGE_LOOP('',(#328));
#218=PLANE('',#219);
#219=AXIS2_PLACEMENT_3D('',#220,#221,#222);
#220=CARTESIAN_POINT('',(44.3001633384669,19.05,8.00000000000001));
#221=DIRECTION('',(8.88178419700124E-17,-2.53765262771464E-16,1.));
#222=DIRECTION('',(-1.22464679914735E-16,-1.,-2.53765262771464E-16));
#223=FACE_OUTER_BOUND('',#224,.T.);
#224=EDGE_LOOP('',(#329));
#225=FACE_OUTER_BOUND('',#226,.T.);
#226=EDGE_LOOP('',(#330));
#227=CONICAL_SURFACE('',#228,2.425,1.0471975511966);
#228=AXIS2_PLACEMENT_3D('',#229,#230,#231);
#229=CARTESIAN_POINT('',(46.1001633384669,-19.95,7.63915608175649));
#230=DIRECTION('',(8.88178419700125E-17,-9.01555320252585E-32,1.));
#231=DIRECTION('',(-1.,-8.00741979614181E-48,8.88178419700125E-17));
#232=FACE_OUTER_BOUND('',#233,.T.);
#233=EDGE_LOOP('',(#331));
#234=FACE_OUTER_BOUND('',#235,.T.);
#235=EDGE_LOOP('',(#332));
#236=CONICAL_SURFACE('',#237,2.425,1.0471975511966);
#237=AXIS2_PLACEMENT_3D('',#238,#239,#240);
#238=CARTESIAN_POINT('',(46.1001633384669,19.05,7.63915608175649));
#239=DIRECTION('',(8.88178419700124E-17,-2.53765262771464E-16,1.));
#240=DIRECTION('',(-1.,-2.25388830063146E-32,8.88178419700124E-17));
#241=ORIENTED_EDGE('',*,*,#333,.F.);
#242=ORIENTED_EDGE('',*,*,#334,.F.);
#243=ORIENTED_EDGE('',*,*,#335,.F.);
#244=ORIENTED_EDGE('',*,*,#336,.F.);
#245=ORIENTED_EDGE('',*,*,#337,.F.);
#246=ORIENTED_EDGE('',*,*,#338,.F.);
#247=ORIENTED_EDGE('',*,*,#339,.F.);
#248=ORIENTED_EDGE('',*,*,#340,.F.);
#249=ORIENTED_EDGE('',*,*,#341,.F.);
#250=ORIENTED_EDGE('',*,*,#342,.F.);
#251=ORIENTED_EDGE('',*,*,#343,.F.);
#252=ORIENTED_EDGE('',*,*,#344,.F.);
#253=ORIENTED_EDGE('',*,*,#345,.F.);
#254=ORIENTED_EDGE('',*,*,#346,.T.);
#255=ORIENTED_EDGE('',*,*,#347,.T.);
#256=ORIENTED_EDGE('',*,*,#348,.T.);
#257=ORIENTED_EDGE('',*,*,#349,.F.);
#258=ORIENTED_EDGE('',*,*,#350,.T.);
#259=ORIENTED_EDGE('',*,*,#351,.T.);
#260=ORIENTED_EDGE('',*,*,#352,.T.);
#261=ORIENTED_EDGE('',*,*,#353,.T.);
#262=ORIENTED_EDGE('',*,*,#354,.T.);
#263=ORIENTED_EDGE('',*,*,#355,.T.);
#264=ORIENTED_EDGE('',*,*,#356,.T.);
#265=ORIENTED_EDGE('',*,*,#357,.F.);
#266=ORIENTED_EDGE('',*,*,#358,.T.);
#267=ORIENTED_EDGE('',*,*,#359,.T.);
#268=ORIENTED_EDGE('',*,*,#360,.T.);
#269=ORIENTED_EDGE('',*,*,#361,.T.);
#270=ORIENTED_EDGE('',*,*,#362,.T.);
#271=ORIENTED_EDGE('',*,*,#363,.F.);
#272=ORIENTED_EDGE('',*,*,#346,.F.);
#273=ORIENTED_EDGE('',*,*,#364,.T.);
#274=ORIENTED_EDGE('',*,*,#350,.F.);
#275=ORIENTED_EDGE('',*,*,#365,.F.);
#276=ORIENTED_EDGE('',*,*,#360,.F.);
#277=ORIENTED_EDGE('',*,*,#366,.F.);
#278=ORIENTED_EDGE('',*,*,#336,.T.);
#279=ORIENTED_EDGE('',*,*,#345,.T.);
#280=ORIENTED_EDGE('',*,*,#367,.T.);
#281=ORIENTED_EDGE('',*,*,#351,.F.);
#282=ORIENTED_EDGE('',*,*,#364,.F.);
#283=ORIENTED_EDGE('',*,*,#334,.T.);
#284=ORIENTED_EDGE('',*,*,#342,.T.);
#285=ORIENTED_EDGE('',*,*,#368,.T.);
#286=ORIENTED_EDGE('',*,*,#354,.F.);
#287=ORIENTED_EDGE('',*,*,#369,.F.);
#288=ORIENTED_EDGE('',*,*,#343,.T.);
#289=ORIENTED_EDGE('',*,*,#369,.T.);
#290=ORIENTED_EDGE('',*,*,#353,.F.);
#291=ORIENTED_EDGE('',*,*,#370,.F.);
#292=ORIENTED_EDGE('',*,*,#344,.T.);
#293=ORIENTED_EDGE('',*,*,#370,.T.);
#294=ORIENTED_EDGE('',*,*,#352,.F.);
#295=ORIENTED_EDGE('',*,*,#367,.F.);
#296=ORIENTED_EDGE('',*,*,#337,.T.);
#297=ORIENTED_EDGE('',*,*,#366,.T.);
#298=ORIENTED_EDGE('',*,*,#359,.F.);
#299=ORIENTED_EDGE('',*,*,#371,.F.);
#300=ORIENTED_EDGE('',*,*,#372,.F.);
#301=ORIENTED_EDGE('',*,*,#338,.T.);
#302=ORIENTED_EDGE('',*,*,#371,.T.);
#303=ORIENTED_EDGE('',*,*,#358,.F.);
#304=ORIENTED_EDGE('',*,*,#373,.F.);
#305=ORIENTED_EDGE('',*,*,#356,.F.);
#306=ORIENTED_EDGE('',*,*,#374,.F.);
#307=ORIENTED_EDGE('',*,*,#340,.T.);
#308=ORIENTED_EDGE('',*,*,#341,.T.);
#309=ORIENTED_EDGE('',*,*,#374,.T.);
#310=ORIENTED_EDGE('',*,*,#355,.F.);
#311=ORIENTED_EDGE('',*,*,#368,.F.);
#312=ORIENTED_EDGE('',*,*,#375,.T.);
#313=ORIENTED_EDGE('',*,*,#361,.F.);
#314=ORIENTED_EDGE('',*,*,#347,.F.);
#315=ORIENTED_EDGE('',*,*,#362,.F.);
#316=ORIENTED_EDGE('',*,*,#348,.F.);
#317=ORIENTED_EDGE('',*,*,#376,.F.);
#318=ORIENTED_EDGE('',*,*,#375,.F.);
#319=ORIENTED_EDGE('',*,*,#365,.T.);
#320=ORIENTED_EDGE('',*,*,#335,.T.);
#321=ORIENTED_EDGE('',*,*,#363,.T.);
#322=ORIENTED_EDGE('',*,*,#349,.T.);
#323=ORIENTED_EDGE('',*,*,#377,.T.);
#324=ORIENTED_EDGE('',*,*,#372,.T.);
#325=ORIENTED_EDGE('',*,*,#357,.T.);
#326=ORIENTED_EDGE('',*,*,#373,.T.);
#327=ORIENTED_EDGE('',*,*,#339,.T.);
#328=ORIENTED_EDGE('',*,*,#378,.T.);
#329=ORIENTED_EDGE('',*,*,#333,.T.);
#330=ORIENTED_EDGE('',*,*,#377,.F.);
#331=ORIENTED_EDGE('',*,*,#376,.T.);
#332=ORIENTED_EDGE('',*,*,#378,.F.);
#333=EDGE_CURVE('',#379,#379,#380,.F.);
#334=EDGE_CURVE('',#381,#381,#382,.T.);
#335=EDGE_CURVE('',#383,#384,#385,.T.);
#336=EDGE_CURVE('',#386,#383,#387,.T.);
#337=EDGE_CURVE('',#388,#386,#389,.T.);
#338=EDGE_CURVE('',#390,#388,#391,.T.);
#339=EDGE_CURVE('',#392,#390,#393,.T.);
#340=EDGE_CURVE('',#394,#392,#395,.T.);
#341=EDGE_CURVE('',#396,#394,#397,.T.);
#342=EDGE_CURVE('',#398,#396,#399,.T.);
#343=EDGE_CURVE('',#400,#398,#401,.T.);
#344=EDGE_CURVE('',#402,#400,#403,.T.);
#345=EDGE_CURVE('',#404,#402,#405,.T.);
#346=EDGE_CURVE('',#404,#384,#406,.T.);
#347=EDGE_CURVE('',#407,#407,#408,.T.);
#348=EDGE_CURVE('',#409,#409,#410,.T.);
#349=EDGE_CURVE('',#411,#412,#413,.T.);
#350=EDGE_CURVE('',#411,#414,#415,.T.);
#351=EDGE_CURVE('',#414,#416,#417,.T.);
#352=EDGE_CURVE('',#416,#418,#419,.T.);
#353=EDGE_CURVE('',#418,#420,#421,.T.);
#354=EDGE_CURVE('',#420,#422,#423,.T.);
#355=EDGE_CURVE('',#422,#424,#425,.T.);
#356=EDGE_CURVE('',#424,#426,#427,.T.);
#357=EDGE_CURVE('',#428,#426,#429,.T.);
#358=EDGE_CURVE('',#428,#430,#431,.T.);
#359=EDGE_CURVE('',#430,#432,#433,.T.);
#360=EDGE_CURVE('',#432,#412,#434,.T.);
#361=EDGE_CURVE('',#435,#435,#436,.F.);
#362=EDGE_CURVE('',#437,#437,#438,.F.);
#363=EDGE_CURVE('',#384,#411,#439,.T.);
#364=EDGE_CURVE('',#404,#414,#440,.T.);
#365=EDGE_CURVE('',#412,#383,#441,.T.);
#366=EDGE_CURVE('',#386,#432,#442,.T.);
#367=EDGE_CURVE('',#402,#416,#443,.T.);
#368=EDGE_CURVE('',#396,#422,#444,.T.);
#369=EDGE_CURVE('',#398,#420,#445,.T.);
#370=EDGE_CURVE('',#400,#418,#446,.T.);
#371=EDGE_CURVE('',#388,#430,#447,.T.);
#372=EDGE_CURVE('',#390,#428,#448,.T.);
#373=EDGE_CURVE('',#426,#392,#449,.T.);
#374=EDGE_CURVE('',#394,#424,#450,.T.);
#375=EDGE_CURVE('',#451,#451,#452,.T.);
#376=EDGE_CURVE('',#453,#453,#454,.F.);
#377=EDGE_CURVE('',#455,#455,#456,.F.);
#378=EDGE_CURVE('',#457,#457,#458,.F.);
#379=VERTEX_POINT('',#459);
#380=CIRCLE('',#460,1.8);
#381=VERTEX_POINT('',#464);
#382=CIRCLE('',#465,1.8);
#383=VERTEX_POINT('',#469);
#384=VERTEX_POINT('',#470);
#385=LINE('',#471,#472);
#386=VERTEX_POINT('',#474);
#387=LINE('',#475,#476);
#388=VERTEX_POINT('',#478);
#389=LINE('',#479,#480);
#390=VERTEX_POINT('',#482);
#391=LINE('',#483,#484);
#392=VERTEX_POINT('',#486);
#393=LINE('',#487,#488);
#394=VERTEX_POINT('',#490);
#395=LINE('',#491,#492);
#396=VERTEX_POINT('',#494);
#397=LINE('',#495,#496);
#398=VERTEX_POINT('',#498);
#399=LINE('',#499,#500);
#400=VERTEX_POINT('',#502);
#401=LINE('',#503,#504);
#402=VERTEX_POINT('',#506);
#403=LINE('',#507,#508);
#404=VERTEX_POINT('',#510);
#405=LINE('',#511,#512);
#406=LINE('',#514,#515);
#407=VERTEX_POINT('',#517);
#408=CIRCLE('',#518,0.999999999999999);
#409=VERTEX_POINT('',#522);
#410=CIRCLE('',#523,0.999999999999999);
#411=VERTEX_POINT('',#527);
#412=VERTEX_POINT('',#528);
#413=LINE('',#529,#530);
#414=VERTEX_POINT('',#532);
#415=LINE('',#533,#534);
#416=VERTEX_POINT('',#536);
#417=LINE('',#537,#538);
#418=VERTEX_POINT('',#540);
#419=LINE('',#541,#542);
#420=VERTEX_POINT('',#544);
#421=LINE('',#545,#546);
#422=VERTEX_POINT('',#548);
#423=LINE('',#549,#550);
#424=VERTEX_POINT('',#552);
#425=LINE('',#553,#554);
#426=VERTEX_POINT('',#556);
#427=LINE('',#557,#558);
#428=VERTEX_POINT('',#560);
#429=LINE('',#561,#562);
#430=VERTEX_POINT('',#564);
#431=LINE('',#565,#566);
#432=VERTEX_POINT('',#568);
#433=LINE('',#569,#570);
#434=LINE('',#572,#573);
#435=VERTEX_POINT('',#575);
#436=CIRCLE('',#576,0.999999999999999);
#437=VERTEX_POINT('',#580);
#438=CIRCLE('',#581,0.999999999999999);
#439=LINE('',#585,#586);
#440=LINE('',#588,#589);
#441=LINE('',#591,#592);
#442=LINE('',#594,#595);
#443=LINE('',#597,#598);
#444=LINE('',#600,#601);
#445=LINE('',#603,#604);
#446=LINE('',#606,#607);
#447=LINE('',#609,#610);
#448=LINE('',#612,#613);
#449=LINE('',#615,#616);
#450=LINE('',#618,#619);
#451=VERTEX_POINT('',#621);
#452=CIRCLE('',#622,1.8);
#453=VERTEX_POINT('',#626);
#454=CIRCLE('',#627,1.8);
#455=VERTEX_POINT('',#631);
#456=CIRCLE('',#632,3.05);
#457=VERTEX_POINT('',#636);
#458=CIRCLE('',#637,3.05);
#459=CARTESIAN_POINT('',(44.3001633384669,-19.95,7.27831216351297));
#460=AXIS2_PLACEMENT_3D('',#461,#462,#463);
#461=CARTESIAN_POINT('',(46.1001633384669,-19.95,7.27831216351297));
#462=DIRECTION('',(8.88178419700125E-17,-9.01555320252585E-32,1.));
#463=DIRECTION('',(-1.,-8.00741979614181E-48,8.88178419700125E-17));
#464=CARTESIAN_POINT('',(44.3001633384669,-19.95,4.));
#465=AXIS2_PLACEMENT_3D('',#466,#467,#468);
#466=CARTESIAN_POINT('',(46.1001633384669,-19.95,4.));
#467=DIRECTION('',(8.88178419700134E-17,2.46930253207061E-15,1.));
#468=DIRECTION('',(-1.,1.22464679914735E-16,8.88178419700131E-17));
#469=CARTESIAN_POINT('',(41.1001633384669,-16.6,8.));
#470=CARTESIAN_POINT('',(41.1001633384669,-23.6,8.));
#471=CARTESIAN_POINT('',(41.1001633384669,-16.6,8.));
#472=VECTOR('',#473,1.);
#473=DIRECTION('',(-1.01506105108586E-15,-1.,0.));
#474=CARTESIAN_POINT('',(41.1001633384669,-16.6,20.2));
#475=CARTESIAN_POINT('',(41.1001633384669,-16.6,20.2));
#476=VECTOR('',#477,1.);
#477=DIRECTION('',(0.,5.82412078491886E-16,-1.));
#478=CARTESIAN_POINT('',(41.1001633384669,15.7,20.2));
#479=CARTESIAN_POINT('',(41.1001633384669,15.7,20.2));
#480=VECTOR('',#481,1.);
#481=DIRECTION('',(0.,-1.,-1.09991135566579E-16));
#482=CARTESIAN_POINT('',(41.1001633384669,15.7,8.00000000000001));
#483=CARTESIAN_POINT('',(41.1001633384669,15.7,8.00000000000001));
#484=VECTOR('',#485,1.);
#485=DIRECTION('',(0.,-1.45603019622971E-16,1.));
#486=CARTESIAN_POINT('',(41.1001633384669,22.7,8.00000000000001));
#487=CARTESIAN_POINT('',(41.1001633384669,22.7,8.00000000000001));
#488=VECTOR('',#489,1.);
#489=DIRECTION('',(-1.01506105108586E-15,-1.,-2.53765262771464E-16));
#490=CARTESIAN_POINT('',(41.1001633384669,22.7,4.00000000000001));
#491=CARTESIAN_POINT('',(41.1001633384669,22.7,4.00000000000001));
#492=VECTOR('',#493,1.);
#493=DIRECTION('',(0.,0.,1.));
#494=CARTESIAN_POINT('',(41.1001633384669,11.369828886016,3.99999999999998));
#495=CARTESIAN_POINT('',(41.1001633384669,11.369828886016,3.99999999999998));
#496=VECTOR('',#497,1.);
#497=DIRECTION('',(6.2712445258936E-16,1.,2.70447420179162E-15));
#498=CARTESIAN_POINT('',(41.1001633384669,11.369828886016,16.2));
#499=CARTESIAN_POINT('',(41.1001633384669,11.369828886016,16.2));
#500=VECTOR('',#501,1.);
#501=DIRECTION('',(0.,2.91206039245942E-16,-1.));
#502=CARTESIAN_POINT('',(41.1001633384669,-12.269828886016,16.2));
#503=CARTESIAN_POINT('',(41.1001633384669,-12.269828886016,16.2));
#504=VECTOR('',#505,1.);
#505=DIRECTION('',(0.,1.,0.));
#506=CARTESIAN_POINT('',(41.1001633384669,-12.269828886016,3.99999999999998));
#507=CARTESIAN_POINT('',(41.1001633384669,-12.269828886016,3.99999999999998));
#508=VECTOR('',#509,1.);
#509=DIRECTION('',(0.,-1.45603019622971E-16,1.));
#510=CARTESIAN_POINT('',(41.1001633384669,-23.6,4.));
#511=CARTESIAN_POINT('',(41.1001633384669,-23.6,4.));
#512=VECTOR('',#513,1.);
#513=DIRECTION('',(6.2712445258936E-16,1.,-2.46930253207061E-15));
#514=CARTESIAN_POINT('',(41.1001633384669,-23.6,4.));
#515=VECTOR('',#516,1.);
#516=DIRECTION('',(0.,0.,1.));
#517=CARTESIAN_POINT('',(41.1001633384669,-13.45,10.1));
#518=AXIS2_PLACEMENT_3D('',#519,#520,#521);
#519=CARTESIAN_POINT('',(41.1001633384669,-14.45,10.1));
#520=DIRECTION('',(1.,-1.83697019872103E-16,-6.12323399573677E-17));
#521=DIRECTION('',(1.83697019872103E-16,1.,6.12323399573676E-17));
#522=CARTESIAN_POINT('',(41.1001633384669,12.55,10.1));
#523=AXIS2_PLACEMENT_3D('',#524,#525,#526);
#524=CARTESIAN_POINT('',(41.1001633384669,13.55,10.1));
#525=DIRECTION('',(1.,-1.83697019872103E-16,-6.12323399573677E-17));
#526=DIRECTION('',(-1.83697019872103E-16,-1.,-6.12323399573676E-17));
#527=CARTESIAN_POINT('',(51.1001633384669,-23.6,8.));
#528=CARTESIAN_POINT('',(51.1001633384669,-16.6,8.));
#529=CARTESIAN_POINT('',(51.1001633384669,-23.6,8.));
#530=VECTOR('',#531,1.);
#531=DIRECTION('',(1.01506105108586E-15,1.,0.));
#532=CARTESIAN_POINT('',(51.1001633384669,-23.6,4.));
#533=CARTESIAN_POINT('',(51.1001633384669,-23.6,8.));
#534=VECTOR('',#535,1.);
#535=DIRECTION('',(0.,0.,-1.));
#536=CARTESIAN_POINT('',(51.1001633384669,-12.269828886016,3.99999999999998));
#537=CARTESIAN_POINT('',(51.1001633384669,-23.6,4.));
#538=VECTOR('',#539,1.);
#539=DIRECTION('',(6.2712445258936E-16,1.,-2.46930253207061E-15));
#540=CARTESIAN_POINT('',(51.1001633384669,-12.269828886016,16.2));
#541=CARTESIAN_POINT('',(51.1001633384669,-12.269828886016,3.99999999999998));
#542=VECTOR('',#543,1.);
#543=DIRECTION('',(0.,-1.45603019622971E-16,1.));
#544=CARTESIAN_POINT('',(51.1001633384669,11.369828886016,16.2));
#545=CARTESIAN_POINT('',(51.1001633384669,-12.269828886016,16.2));
#546=VECTOR('',#547,1.);
#547=DIRECTION('',(0.,1.,0.));
#548=CARTESIAN_POINT('',(51.1001633384669,11.369828886016,3.99999999999998));
#549=CARTESIAN_POINT('',(51.1001633384669,11.369828886016,16.2));
#550=VECTOR('',#551,1.);
#551=DIRECTION('',(0.,2.91206039245942E-16,-1.));
#552=CARTESIAN_POINT('',(51.1001633384669,22.7,4.00000000000001));
#553=CARTESIAN_POINT('',(51.1001633384669,11.369828886016,3.99999999999998));
#554=VECTOR('',#555,1.);
#555=DIRECTION('',(6.2712445258936E-16,1.,2.66527892350478E-15));
#556=CARTESIAN_POINT('',(51.1001633384669,22.7,8.00000000000001));
#557=CARTESIAN_POINT('',(51.1001633384669,22.7,4.00000000000001));
#558=VECTOR('',#559,1.);
#559=DIRECTION('',(0.,0.,1.));
#560=CARTESIAN_POINT('',(51.1001633384669,15.7,8.00000000000001));
#561=CARTESIAN_POINT('',(51.1001633384669,15.7,8.00000000000001));
#562=VECTOR('',#563,1.);
#563=DIRECTION('',(1.01506105108586E-15,1.,2.53765262771464E-16));
#564=CARTESIAN_POINT('',(51.1001633384669,15.7,20.2));
#565=CARTESIAN_POINT('',(51.1001633384669,15.7,8.));
#566=VECTOR('',#567,1.);
#567=DIRECTION('',(0.,0.,1.));
#568=CARTESIAN_POINT('',(51.1001633384669,-16.6,20.2));
#569=CARTESIAN_POINT('',(51.1001633384669,15.7,20.2));
#570=VECTOR('',#571,1.);
#571=DIRECTION('',(0.,-1.,-1.09991135566579E-16));
#572=CARTESIAN_POINT('',(51.1001633384669,-16.6,20.2));
#573=VECTOR('',#574,1.);
#574=DIRECTION('',(0.,5.82412078491886E-16,-1.));
#575=CARTESIAN_POINT('',(51.1001633384669,-13.45,10.1));
#576=AXIS2_PLACEMENT_3D('',#577,#578,#579);
#577=CARTESIAN_POINT('',(51.1001633384669,-14.45,10.1));
#578=DIRECTION('',(1.,-1.83697019872103E-16,-6.12323399573677E-17));
#579=DIRECTION('',(1.83697019872103E-16,1.,6.12323399573676E-17));
#580=CARTESIAN_POINT('',(51.1001633384669,12.55,10.1));
#581=AXIS2_PLACEMENT_3D('',#582,#583,#584);
#582=CARTESIAN_POINT('',(51.1001633384669,13.55,10.1));
#583=DIRECTION('',(1.,-1.83697019872103E-16,-6.12323399573677E-17));
#584=DIRECTION('',(-1.83697019872103E-16,-1.,-6.12323399573676E-17));
#585=CARTESIAN_POINT('',(41.1001633384669,-23.6,8.));
#586=VECTOR('',#587,1.);
#587=DIRECTION('',(1.,-3.5527136788005E-16,0.));
#588=CARTESIAN_POINT('',(41.1001633384669,-23.6,4.));
#589=VECTOR('',#590,1.);
#590=DIRECTION('',(1.,-3.5527136788005E-16,-8.88178419700125E-17));
#591=CARTESIAN_POINT('',(51.1001633384669,-16.6,8.00000000000001));
#592=VECTOR('',#593,1.);
#593=DIRECTION('',(-1.,3.5527136788005E-16,0.));
#594=CARTESIAN_POINT('',(41.1001633384669,-16.6,20.2));
#595=VECTOR('',#596,1.);
#596=DIRECTION('',(1.,0.,-3.5527136788005E-16));
#597=CARTESIAN_POINT('',(41.1001633384669,-12.269828886016,3.99999999999998));
#598=VECTOR('',#599,1.);
#599=DIRECTION('',(1.,-1.77635683940025E-16,-8.88178419700125E-17));
#600=CARTESIAN_POINT('',(41.1001633384669,11.369828886016,3.99999999999998));
#601=VECTOR('',#602,1.);
#602=DIRECTION('',(1.,-1.77635683940025E-16,0.));
#603=CARTESIAN_POINT('',(41.1001633384669,11.369828886016,16.2));
#604=VECTOR('',#605,1.);
#605=DIRECTION('',(1.,0.,0.));
#606=CARTESIAN_POINT('',(41.1001633384669,-12.269828886016,16.2));
#607=VECTOR('',#608,1.);
#608=DIRECTION('',(1.,-1.77635683940025E-16,0.));
#609=CARTESIAN_POINT('',(41.1001633384669,15.7,20.2));
#610=VECTOR('',#611,1.);
#611=DIRECTION('',(1.,-1.77635683940025E-16,-7.105427357601E-16));
#612=CARTESIAN_POINT('',(41.1001633384669,15.7,8.00000000000001));
#613=VECTOR('',#614,1.);
#614=DIRECTION('',(1.,-1.77635683940025E-16,0.));
#615=CARTESIAN_POINT('',(51.1001633384669,22.7,8.00000000000001));
#616=VECTOR('',#617,1.);
#617=DIRECTION('',(-1.,3.5527136788005E-16,0.));
#618=CARTESIAN_POINT('',(41.1001633384669,22.7,4.00000000000001));
#619=VECTOR('',#620,1.);
#620=DIRECTION('',(1.,0.,-8.88178419700125E-17));
#621=CARTESIAN_POINT('',(44.3001633384669,19.05,4.));
#622=AXIS2_PLACEMENT_3D('',#623,#624,#625);
#623=CARTESIAN_POINT('',(46.1001633384669,19.05,4.));
#624=DIRECTION('',(4.44089209850058E-17,-2.70447420179162E-15,1.));
#625=DIRECTION('',(-1.,1.22464679914735E-16,4.44089209850061E-17));
#626=CARTESIAN_POINT('',(44.3001633384669,19.05,7.27831216351298));
#627=AXIS2_PLACEMENT_3D('',#628,#629,#630);
#628=CARTESIAN_POINT('',(46.1001633384669,19.05,7.27831216351298));
#629=DIRECTION('',(8.88178419700125E-17,-9.01555320252585E-32,1.));
#630=DIRECTION('',(-1.,-8.00741979614181E-48,8.88178419700125E-17));
#631=CARTESIAN_POINT('',(43.0501633384669,-19.95,8.));
#632=AXIS2_PLACEMENT_3D('',#633,#634,#635);
#633=CARTESIAN_POINT('',(46.1001633384669,-19.95,8.));
#634=DIRECTION('',(8.88178419700125E-17,-9.01555320252585E-32,1.));
#635=DIRECTION('',(-1.,3.06161699786838E-16,8.88178419700125E-17));
#636=CARTESIAN_POINT('',(43.0501633384669,19.05,8.00000000000001));
#637=AXIS2_PLACEMENT_3D('',#638,#639,#640);
#638=CARTESIAN_POINT('',(46.1001633384669,19.05,8.00000000000001));
#639=DIRECTION('',(8.88178419700124E-17,-2.53765262771464E-16,1.));
#640=DIRECTION('',(-1.,1.19434011948696E-15,8.88178419700127E-17));
ENDSEC;
END-ISO-10303-21;
