ISO-10303-21;
HEADER;
FILE_DESCRIPTION(('STEP AP242'),
    '1');
FILE_NAME('Деталь',
    '',
    ('UNSPECIFIED'),
    ('UNSPECIFIED'),
    'C3D Converter',
    'C3D Toolkit',
    '');
FILE_SCHEMA(('AP242_MANAGED_MODEL_BASED_3D_ENGINEERING_MIM_LF { 1 0 10303 442 1 1 4 }'));
ENDSEC;

DATA;
#1=PRODUCT_DEFINITION('','UNSPECIFIED',#28,#31);
#2=SHAPE_DEFINITION_REPRESENTATION(#26,#3);
#3=SHAPE_REPRESENTATION('NONE',(#4),#8);
#4=AXIS2_PLACEMENT_3D('',#5,#6,#7);
#5=CARTESIAN_POINT('',(0.,0.,0.));
#6=DIRECTION('',(0.,0.,1.));
#7=DIRECTION('',(1.,0.,0.));
#8=(GEOMETRIC_REPRESENTATION_CONTEXT(3)GLOBAL_UNCERTAINTY_ASSIGNED_CONTEXT((#10))
GLOBAL_UNIT_ASSIGNED_CONTEXT((#9,#11,#12))REPRESENTATION_CONTEXT('NONE','NONE'));
#9=(LENGTH_UNIT()NAMED_UNIT(*)SI_UNIT(.MILLI.,.METRE.));
#10=UNCERTAINTY_MEASURE_WITH_UNIT(LENGTH_MEASURE(1.E-5),#9,'NONE','NONE');
#11=(NAMED_UNIT(*)PLANE_ANGLE_UNIT()SI_UNIT($,.RADIAN.));
#12=(NAMED_UNIT(*)SI_UNIT($,.STERADIAN.)SOLID_ANGLE_UNIT());
#13=MANIFOLD_SOLID_BREP('',#14);
#14=CLOSED_SHELL('',(#53,#54,#55,#56,#57,#58,#59,#60,#61,#62,#63,#64,#65));
#15=COLOUR_RGB('',0.564705882352941,0.564705882352941,0.564705882352941);
#16=FILL_AREA_STYLE_COLOUR('',#15);
#17=FILL_AREA_STYLE($,(#16));
#18=SURFACE_STYLE_FILL_AREA(#17);
#19=SURFACE_SIDE_STYLE('',(#18));
#20=SURFACE_STYLE_USAGE(.BOTH.,#19);
#21=PRESENTATION_STYLE_ASSIGNMENT((#20));
#22=MECHANICAL_DESIGN_GEOMETRIC_PRESENTATION_REPRESENTATION('NONE',(#23),#8);
#23=STYLED_ITEM('',(#21),#13);
#24=ADVANCED_BREP_SHAPE_REPRESENTATION('NONE',(#13),#8);
#25=SHAPE_REPRESENTATION_RELATIONSHIP('','',#3,#24);
#26=PRODUCT_DEFINITION_SHAPE('NONE','NONE',#1);
#27=MECHANICAL_CONTEXT('NONE',#32,'mechanical');
#28=PRODUCT_DEFINITION_FORMATION_WITH_SPECIFIED_SOURCE('ANY','UNSPECIFIED',#29,.NOT_KNOWN.);
#29=PRODUCT('','\X2\0414043504420430043B044C\X0\','NONE',(#27));
#30=PRODUCT_RELATED_PRODUCT_CATEGORY('detail','',(#29));
#31=DESIGN_CONTEXT('detailed design',#32,'design');
#32=APPLICATION_CONTEXT('configuration controlled 3d designs of mechanical parts and assemblies');
#33=APPLICATION_PROTOCOL_DEFINITION('international standard','config_control_design',
1994,#32);
#34=CC_DESIGN_DATE_AND_TIME_ASSIGNMENT(#35,#39,(#1));
#35=DATE_AND_TIME(#36,#37);
#36=CALENDAR_DATE(0,1,1);
#37=LOCAL_TIME(0,0,0.,#38);
#38=COORDINATED_UNIVERSAL_TIME_OFFSET(0,0,.AHEAD.);
#39=DATE_TIME_ROLE('creation_date');
#40=CC_DESIGN_APPROVAL(#41,(#1));
#41=APPROVAL(#42,'UNSPECIFIED');
#42=APPROVAL_STATUS('not_yet_approved');
#43=APPROVAL_DATE_TIME(#44,#41);
#44=DATE_AND_TIME(#45,#46);
#45=CALENDAR_DATE(0,1,1);
#46=LOCAL_TIME(0,0,0.,#47);
#47=COORDINATED_UNIVERSAL_TIME_OFFSET(0,0,.AHEAD.);
#48=PERSON('UNSPECIFIED','matve','UNSPECIFIED',('UNSPECIFIED'),('UNSPECIFIED'),(
'UNSPECIFIED'));
#49=ORGANIZATION('UNSPECIFIED','UNSPECIFIED','UNSPECIFIED');
#50=PERSON_AND_ORGANIZATION(#48,#49);
#51=PERSON_AND_ORGANIZATION_ROLE('creator');
#52=CC_DESIGN_PERSON_AND_ORGANIZATION_ASSIGNMENT(#50,#51,(#28,#1));
#53=ADVANCED_FACE('',(#66),#68,.T.);
#54=ADVANCED_FACE('',(#73),#75,.T.);
#55=ADVANCED_FACE('',(#80),#82,.T.);
#56=ADVANCED_FACE('',(#87),#89,.T.);
#57=ADVANCED_FACE('',(#94,#96),#98,.F.);
#58=ADVANCED_FACE('',(#103,#105),#107,.T.);
#59=ADVANCED_FACE('',(#112,#114,#116),#118,.F.);
#60=ADVANCED_FACE('',(#123,#125,#127),#129,.T.);
#61=ADVANCED_FACE('',(#134),#136,.T.);
#62=ADVANCED_FACE('',(#141),#143,.T.);
#63=ADVANCED_FACE('',(#148),#150,.T.);
#64=ADVANCED_FACE('',(#155,#157),#159,.F.);
#65=ADVANCED_FACE('',(#164,#166),#168,.F.);
#66=FACE_BOUND('',#67,.T.);
#67=EDGE_LOOP('',(#173,#174,#175,#176));
#68=PLANE('',#69);
#69=AXIS2_PLACEMENT_3D('',#70,#71,#72);
#70=CARTESIAN_POINT('',(3.08148791101958E-33,-6.66333333333333,-3.));
#71=DIRECTION('',(0.,-1.,0.));
#72=DIRECTION('',(-1.,0.,0.));
#73=FACE_BOUND('',#74,.T.);
#74=EDGE_LOOP('',(#177,#178,#179,#180));
#75=PLANE('',#76);
#76=AXIS2_PLACEMENT_3D('',#77,#78,#79);
#77=CARTESIAN_POINT('',(0.,6.66666666666667,-3.));
#78=DIRECTION('',(1.,2.31169385672887E-34,0.));
#79=DIRECTION('',(2.31169385672887E-34,-1.,0.));
#80=FACE_BOUND('',#81,.T.);
#81=EDGE_LOOP('',(#181,#182,#183,#184,#185,#186));
#82=PLANE('',#83);
#83=AXIS2_PLACEMENT_3D('',#84,#85,#86);
#84=CARTESIAN_POINT('',(10.,6.66666666666667,-3.));
#85=DIRECTION('',(8.88178419700125E-17,1.,0.));
#86=DIRECTION('',(-1.,8.88178419700125E-17,0.));
#87=FACE_BOUND('',#88,.T.);
#88=EDGE_LOOP('',(#187,#188,#189,#190,#191,#192));
#89=PLANE('',#90);
#90=AXIS2_PLACEMENT_3D('',#91,#92,#93);
#91=CARTESIAN_POINT('',(-10.,6.66666666666667,-3.));
#92=DIRECTION('',(-1.,0.,0.));
#93=DIRECTION('',(0.,-1.,0.));
#94=FACE_OUTER_BOUND('',#95,.T.);
#95=EDGE_LOOP('',(#193));
#96=FACE_OUTER_BOUND('',#97,.T.);
#97=EDGE_LOOP('',(#194));
#98=CYLINDRICAL_SURFACE('',#99,2.25);
#99=AXIS2_PLACEMENT_3D('',#100,#101,#102);
#100=CARTESIAN_POINT('',(-5.,0.00166666666666573,-64.4));
#101=DIRECTION('',(0.,0.,-1.));
#102=DIRECTION('',(-6.12323399573677E-17,1.,0.));
#103=FACE_BOUND('',#104,.T.);
#104=EDGE_LOOP('',(#195,#196,#197,#198));
#105=FACE_BOUND('',#106,.T.);
#106=EDGE_LOOP('',(#199));
#107=PLANE('',#108);
#108=AXIS2_PLACEMENT_3D('',#109,#110,#111);
#109=CARTESIAN_POINT('',(-5.,2.25166666666667,-49.));
#110=DIRECTION('',(0.,0.,-1.));
#111=DIRECTION('',(1.,6.12323399573677E-17,0.));
#112=FACE_BOUND('',#113,.T.);
#113=EDGE_LOOP('',(#200,#201,#202,#203,#204,#205));
#114=FACE_BOUND('',#115,.T.);
#115=EDGE_LOOP('',(#206));
#116=FACE_BOUND('',#117,.T.);
#117=EDGE_LOOP('',(#207));
#118=PLANE('',#119);
#119=AXIS2_PLACEMENT_3D('',#120,#121,#122);
#120=CARTESIAN_POINT('',(0.,0.,-3.));
#121=DIRECTION('',(0.,0.,1.));
#122=DIRECTION('',(-1.,1.22464679914735E-16,0.));
#123=FACE_BOUND('',#124,.T.);
#124=EDGE_LOOP('',(#208,#209,#210,#211));
#125=FACE_BOUND('',#126,.T.);
#126=EDGE_LOOP('',(#212));
#127=FACE_BOUND('',#128,.T.);
#128=EDGE_LOOP('',(#213));
#129=PLANE('',#130);
#130=AXIS2_PLACEMENT_3D('',#131,#132,#133);
#131=CARTESIAN_POINT('',(0.,0.,3.));
#132=DIRECTION('',(0.,0.,1.));
#133=DIRECTION('',(-1.,1.22464679914735E-16,0.));
#134=FACE_BOUND('',#135,.T.);
#135=EDGE_LOOP('',(#214,#215,#216,#217));
#136=PLANE('',#137);
#137=AXIS2_PLACEMENT_3D('',#138,#139,#140);
#138=CARTESIAN_POINT('',(10.,-6.66666666666667,-3.));
#139=DIRECTION('',(1.,0.,0.));
#140=DIRECTION('',(0.,1.,0.));
#141=FACE_BOUND('',#142,.T.);
#142=EDGE_LOOP('',(#218,#219,#220,#221));
#143=PLANE('',#144);
#144=AXIS2_PLACEMENT_3D('',#145,#146,#147);
#145=CARTESIAN_POINT('',(-10.,-6.66666666666667,-3.));
#146=DIRECTION('',(-8.88178419700125E-17,-1.,0.));
#147=DIRECTION('',(1.,-8.88178419700125E-17,0.));
#148=FACE_BOUND('',#149,.T.);
#149=EDGE_LOOP('',(#222));
#150=PLANE('',#151);
#151=AXIS2_PLACEMENT_3D('',#152,#153,#154);
#152=CARTESIAN_POINT('',(0.,0.,-43.4));
#153=DIRECTION('',(0.,0.,-1.));
#154=DIRECTION('',(-6.12323399573677E-17,1.,0.));
#155=FACE_OUTER_BOUND('',#156,.T.);
#156=EDGE_LOOP('',(#223));
#157=FACE_OUTER_BOUND('',#158,.T.);
#158=EDGE_LOOP('',(#224));
#159=CYLINDRICAL_SURFACE('',#160,1.5);
#160=AXIS2_PLACEMENT_3D('',#161,#162,#163);
#161=CARTESIAN_POINT('',(7.23537428380919,-3.35417561805055,-3.));
#162=DIRECTION('',(0.,0.,1.));
#163=DIRECTION('',(-1.,1.22464679914735E-16,0.));
#164=FACE_OUTER_BOUND('',#165,.T.);
#165=EDGE_LOOP('',(#225));
#166=FACE_OUTER_BOUND('',#167,.T.);
#167=EDGE_LOOP('',(#226));
#168=CYLINDRICAL_SURFACE('',#169,1.5);
#169=AXIS2_PLACEMENT_3D('',#170,#171,#172);
#170=CARTESIAN_POINT('',(7.23537428380919,3.35417561805055,-3.));
#171=DIRECTION('',(0.,0.,1.));
#172=DIRECTION('',(-1.,1.22464679914735E-16,0.));
#173=ORIENTED_EDGE('',*,*,#227,.T.);
#174=ORIENTED_EDGE('',*,*,#228,.F.);
#175=ORIENTED_EDGE('',*,*,#229,.T.);
#176=ORIENTED_EDGE('',*,*,#230,.T.);
#177=ORIENTED_EDGE('',*,*,#231,.T.);
#178=ORIENTED_EDGE('',*,*,#232,.F.);
#179=ORIENTED_EDGE('',*,*,#233,.T.);
#180=ORIENTED_EDGE('',*,*,#228,.T.);
#181=ORIENTED_EDGE('',*,*,#234,.T.);
#182=ORIENTED_EDGE('',*,*,#235,.F.);
#183=ORIENTED_EDGE('',*,*,#236,.F.);
#184=ORIENTED_EDGE('',*,*,#237,.F.);
#185=ORIENTED_EDGE('',*,*,#238,.T.);
#186=ORIENTED_EDGE('',*,*,#232,.T.);
#187=ORIENTED_EDGE('',*,*,#239,.T.);
#188=ORIENTED_EDGE('',*,*,#230,.F.);
#189=ORIENTED_EDGE('',*,*,#240,.T.);
#190=ORIENTED_EDGE('',*,*,#241,.T.);
#191=ORIENTED_EDGE('',*,*,#242,.F.);
#192=ORIENTED_EDGE('',*,*,#235,.T.);
#193=ORIENTED_EDGE('',*,*,#243,.F.);
#194=ORIENTED_EDGE('',*,*,#244,.T.);
#195=ORIENTED_EDGE('',*,*,#239,.F.);
#196=ORIENTED_EDGE('',*,*,#234,.F.);
#197=ORIENTED_EDGE('',*,*,#231,.F.);
#198=ORIENTED_EDGE('',*,*,#227,.F.);
#199=ORIENTED_EDGE('',*,*,#244,.F.);
#200=ORIENTED_EDGE('',*,*,#233,.F.);
#201=ORIENTED_EDGE('',*,*,#238,.F.);
#202=ORIENTED_EDGE('',*,*,#245,.F.);
#203=ORIENTED_EDGE('',*,*,#246,.F.);
#204=ORIENTED_EDGE('',*,*,#240,.F.);
#205=ORIENTED_EDGE('',*,*,#229,.F.);
#206=ORIENTED_EDGE('',*,*,#247,.T.);
#207=ORIENTED_EDGE('',*,*,#248,.T.);
#208=ORIENTED_EDGE('',*,*,#242,.T.);
#209=ORIENTED_EDGE('',*,*,#249,.T.);
#210=ORIENTED_EDGE('',*,*,#250,.T.);
#211=ORIENTED_EDGE('',*,*,#236,.T.);
#212=ORIENTED_EDGE('',*,*,#251,.T.);
#213=ORIENTED_EDGE('',*,*,#252,.T.);
#214=ORIENTED_EDGE('',*,*,#245,.T.);
#215=ORIENTED_EDGE('',*,*,#237,.T.);
#216=ORIENTED_EDGE('',*,*,#250,.F.);
#217=ORIENTED_EDGE('',*,*,#253,.F.);
#218=ORIENTED_EDGE('',*,*,#246,.T.);
#219=ORIENTED_EDGE('',*,*,#253,.T.);
#220=ORIENTED_EDGE('',*,*,#249,.F.);
#221=ORIENTED_EDGE('',*,*,#241,.F.);
#222=ORIENTED_EDGE('',*,*,#243,.T.);
#223=ORIENTED_EDGE('',*,*,#252,.F.);
#224=ORIENTED_EDGE('',*,*,#247,.F.);
#225=ORIENTED_EDGE('',*,*,#251,.F.);
#226=ORIENTED_EDGE('',*,*,#248,.F.);
#227=EDGE_CURVE('',#254,#255,#256,.T.);
#228=EDGE_CURVE('',#257,#255,#258,.T.);
#229=EDGE_CURVE('',#257,#259,#260,.F.);
#230=EDGE_CURVE('',#259,#254,#261,.T.);
#231=EDGE_CURVE('',#255,#262,#263,.T.);
#232=EDGE_CURVE('',#264,#262,#265,.T.);
#233=EDGE_CURVE('',#264,#257,#266,.F.);
#234=EDGE_CURVE('',#262,#267,#268,.T.);
#235=EDGE_CURVE('',#269,#267,#270,.T.);
#236=EDGE_CURVE('',#271,#269,#272,.T.);
#237=EDGE_CURVE('',#273,#271,#274,.T.);
#238=EDGE_CURVE('',#273,#264,#275,.T.);
#239=EDGE_CURVE('',#267,#254,#276,.T.);
#240=EDGE_CURVE('',#259,#277,#278,.T.);
#241=EDGE_CURVE('',#277,#279,#280,.T.);
#242=EDGE_CURVE('',#269,#279,#281,.T.);
#243=EDGE_CURVE('',#282,#282,#283,.T.);
#244=EDGE_CURVE('',#284,#284,#285,.T.);
#245=EDGE_CURVE('',#286,#273,#287,.T.);
#246=EDGE_CURVE('',#277,#286,#288,.T.);
#247=EDGE_CURVE('',#289,#289,#290,.T.);
#248=EDGE_CURVE('',#291,#291,#292,.T.);
#249=EDGE_CURVE('',#279,#293,#294,.T.);
#250=EDGE_CURVE('',#293,#271,#295,.T.);
#251=EDGE_CURVE('',#296,#296,#297,.F.);
#252=EDGE_CURVE('',#298,#298,#299,.F.);
#253=EDGE_CURVE('',#286,#293,#300,.T.);
#254=VERTEX_POINT('',#301);
#255=VERTEX_POINT('',#302);
#256=LINE('',#303,#304);
#257=VERTEX_POINT('',#306);
#258=LINE('',#307,#308);
#259=VERTEX_POINT('',#310);
#260=LINE('',#311,#312);
#261=LINE('',#314,#315);
#262=VERTEX_POINT('',#317);
#263=LINE('',#318,#319);
#264=VERTEX_POINT('',#321);
#265=LINE('',#322,#323);
#266=LINE('',#325,#326);
#267=VERTEX_POINT('',#328);
#268=LINE('',#329,#330);
#269=VERTEX_POINT('',#332);
#270=LINE('',#333,#334);
#271=VERTEX_POINT('',#336);
#272=LINE('',#337,#338);
#273=VERTEX_POINT('',#340);
#274=LINE('',#341,#342);
#275=LINE('',#344,#345);
#276=LINE('',#347,#348);
#277=VERTEX_POINT('',#350);
#278=LINE('',#351,#352);
#279=VERTEX_POINT('',#354);
#280=LINE('',#355,#356);
#281=LINE('',#358,#359);
#282=VERTEX_POINT('',#361);
#283=CIRCLE('',#362,2.25);
#284=VERTEX_POINT('',#366);
#285=CIRCLE('',#367,2.25);
#286=VERTEX_POINT('',#371);
#287=LINE('',#372,#373);
#288=LINE('',#375,#376);
#289=VERTEX_POINT('',#378);
#290=CIRCLE('',#379,1.5);
#291=VERTEX_POINT('',#383);
#292=CIRCLE('',#384,1.5);
#293=VERTEX_POINT('',#388);
#294=LINE('',#389,#390);
#295=LINE('',#392,#393);
#296=VERTEX_POINT('',#395);
#297=CIRCLE('',#396,1.5);
#298=VERTEX_POINT('',#400);
#299=CIRCLE('',#401,1.5);
#300=LINE('',#405,#406);
#301=CARTESIAN_POINT('',(-10.,-6.66333333333333,-49.));
#302=CARTESIAN_POINT('',(3.08148791101958E-33,-6.66333333333333,-49.));
#303=CARTESIAN_POINT('',(-10.,-6.66333333333333,-49.));
#304=VECTOR('',#305,1.);
#305=DIRECTION('',(1.,0.,0.));
#306=CARTESIAN_POINT('',(3.08148791101958E-33,-6.66333333333333,-3.));
#307=CARTESIAN_POINT('',(3.08148791101958E-33,-6.66333333333333,-3.));
#308=VECTOR('',#309,1.);
#309=DIRECTION('',(0.,0.,-1.));
#310=CARTESIAN_POINT('',(-10.,-6.66333333333333,-3.));
#311=CARTESIAN_POINT('',(-10.,-6.66333333333333,-3.));
#312=VECTOR('',#313,1.);
#313=DIRECTION('',(1.,0.,0.));
#314=CARTESIAN_POINT('',(-10.,-6.66333333333333,-3.));
#315=VECTOR('',#316,1.);
#316=DIRECTION('',(0.,0.,-1.));
#317=CARTESIAN_POINT('',(0.,6.66666666666667,-49.));
#318=CARTESIAN_POINT('',(-1.71146054490096E-16,-6.66333333333333,-49.));
#319=VECTOR('',#320,1.);
#320=DIRECTION('',(2.69884951494428E-18,1.,0.));
#321=CARTESIAN_POINT('',(1.36071866571928E-16,6.66666666666667,-3.));
#322=CARTESIAN_POINT('',(0.,6.66666666666667,-3.));
#323=VECTOR('',#324,1.);
#324=DIRECTION('',(0.,0.,-1.));
#325=CARTESIAN_POINT('',(1.54074395550979E-33,-6.66333333333333,-3.));
#326=VECTOR('',#327,1.);
#327=DIRECTION('',(-1.15584692836443E-34,1.,0.));
#328=CARTESIAN_POINT('',(-10.,6.66666666666667,-49.));
#329=CARTESIAN_POINT('',(-1.35170390455889E-16,6.66666666666667,-49.));
#330=VECTOR('',#331,1.);
#331=DIRECTION('',(-1.,0.,0.));
#332=CARTESIAN_POINT('',(-10.,6.66666666666667,3.));
#333=CARTESIAN_POINT('',(-10.,6.66666666666667,3.));
#334=VECTOR('',#335,1.);
#335=DIRECTION('',(0.,0.,-1.));
#336=CARTESIAN_POINT('',(10.,6.66666666666667,3.));
#337=CARTESIAN_POINT('',(10.,6.66666666666667,3.));
#338=VECTOR('',#339,1.);
#339=DIRECTION('',(-1.,8.88178419700125E-17,0.));
#340=CARTESIAN_POINT('',(10.,6.66666666666667,-3.));
#341=CARTESIAN_POINT('',(10.,6.66666666666667,-3.));
#342=VECTOR('',#343,1.);
#343=DIRECTION('',(0.,0.,1.));
#344=CARTESIAN_POINT('',(10.,6.66666666666667,-3.));
#345=VECTOR('',#346,1.);
#346=DIRECTION('',(-1.,8.88178419700125E-17,0.));
#347=CARTESIAN_POINT('',(-10.,6.66666666666667,-49.));
#348=VECTOR('',#349,1.);
#349=DIRECTION('',(0.,-1.,0.));
#350=CARTESIAN_POINT('',(-10.,-6.66666666666667,-3.));
#351=CARTESIAN_POINT('',(-10.,-6.66333333333333,-3.));
#352=VECTOR('',#353,1.);
#353=DIRECTION('',(0.,-1.,0.));
#354=CARTESIAN_POINT('',(-10.,-6.66666666666667,3.));
#355=CARTESIAN_POINT('',(-10.,-6.66666666666667,-3.));
#356=VECTOR('',#357,1.);
#357=DIRECTION('',(0.,0.,1.));
#358=CARTESIAN_POINT('',(-10.,6.66666666666667,3.));
#359=VECTOR('',#360,1.);
#360=DIRECTION('',(0.,-1.,0.));
#361=CARTESIAN_POINT('',(-5.,2.25166666666667,-43.4));
#362=AXIS2_PLACEMENT_3D('',#363,#364,#365);
#363=CARTESIAN_POINT('',(-5.,0.00166666666666573,-43.4));
#364=DIRECTION('',(0.,0.,-1.));
#365=DIRECTION('',(-6.12323399573677E-17,1.,0.));
#366=CARTESIAN_POINT('',(-5.,2.25166666666667,-49.));
#367=AXIS2_PLACEMENT_3D('',#368,#369,#370);
#368=CARTESIAN_POINT('',(-5.,0.00166666666666559,-49.));
#369=DIRECTION('',(0.,0.,-1.));
#370=DIRECTION('',(-6.12323399573677E-17,1.,0.));
#371=CARTESIAN_POINT('',(10.,-6.66666666666667,-3.));
#372=CARTESIAN_POINT('',(10.,-6.66666666666667,-3.));
#373=VECTOR('',#374,1.);
#374=DIRECTION('',(0.,1.,0.));
#375=CARTESIAN_POINT('',(-10.,-6.66666666666667,-3.));
#376=VECTOR('',#377,1.);
#377=DIRECTION('',(1.,-8.88178419700125E-17,0.));
#378=CARTESIAN_POINT('',(5.73537428380919,-3.35417561805055,-3.));
#379=AXIS2_PLACEMENT_3D('',#380,#381,#382);
#380=CARTESIAN_POINT('',(7.23537428380919,-3.35417561805055,-3.));
#381=DIRECTION('',(0.,0.,1.));
#382=DIRECTION('',(-1.,1.22464679914735E-16,0.));
#383=CARTESIAN_POINT('',(5.73537428380919,3.35417561805055,-3.));
#384=AXIS2_PLACEMENT_3D('',#385,#386,#387);
#385=CARTESIAN_POINT('',(7.23537428380919,3.35417561805055,-3.));
#386=DIRECTION('',(0.,0.,1.));
#387=DIRECTION('',(-1.,1.22464679914735E-16,0.));
#388=CARTESIAN_POINT('',(10.,-6.66666666666667,3.));
#389=CARTESIAN_POINT('',(-10.,-6.66666666666667,3.));
#390=VECTOR('',#391,1.);
#391=DIRECTION('',(1.,-8.88178419700125E-17,0.));
#392=CARTESIAN_POINT('',(10.,-6.66666666666667,3.));
#393=VECTOR('',#394,1.);
#394=DIRECTION('',(0.,1.,0.));
#395=CARTESIAN_POINT('',(5.73537428380919,3.35417561805055,3.));
#396=AXIS2_PLACEMENT_3D('',#397,#398,#399);
#397=CARTESIAN_POINT('',(7.23537428380919,3.35417561805055,3.));
#398=DIRECTION('',(0.,0.,1.));
#399=DIRECTION('',(-1.,1.22464679914735E-16,0.));
#400=CARTESIAN_POINT('',(5.73537428380919,-3.35417561805055,3.));
#401=AXIS2_PLACEMENT_3D('',#402,#403,#404);
#402=CARTESIAN_POINT('',(7.23537428380919,-3.35417561805055,3.));
#403=DIRECTION('',(0.,0.,1.));
#404=DIRECTION('',(-1.,1.22464679914735E-16,0.));
#405=CARTESIAN_POINT('',(10.,-6.66666666666667,-3.));
#406=VECTOR('',#407,1.);
#407=DIRECTION('',(0.,0.,1.));
ENDSEC;
END-ISO-10303-21;
